<?xml version="1.0" encoding="UTF-8" standalone="no"?>
<!-- Created with Inkscape (http://www.inkscape.org/) -->
<svg
   xmlns:dc="http://purl.org/dc/elements/1.1/"
   xmlns:cc="http://creativecommons.org/ns#"
   xmlns:rdf="http://www.w3.org/1999/02/22-rdf-syntax-ns#"
   xmlns:svg="http://www.w3.org/2000/svg"
   xmlns="http://www.w3.org/2000/svg"
   xmlns:xlink="http://www.w3.org/1999/xlink"
   xmlns:sodipodi="http://sodipodi.sourceforge.net/DTD/sodipodi-0.dtd"
   xmlns:inkscape="http://www.inkscape.org/namespaces/inkscape"
   width="140"
   height="256"
   id="svg2661"
   sodipodi:version="0.32"
   inkscape:version="0.46"
   sodipodi:docname="Clicks.svg"
   inkscape:output_extension="org.inkscape.output.svg.inkscape"
   version="1.0"
   inkscape:export-filename="C:\LocalFiles\ShokoRocket++\src\ShokoRocket++\Sprites\GUI\Clicks.png"
   inkscape:export-xdpi="90"
   inkscape:export-ydpi="90">
  <defs
     id="defs2663">
    <linearGradient
       id="linearGradient3257">
      <stop
         style="stop-color:#ffffff;stop-opacity:0;"
         offset="0"
         id="stop3259" />
      <stop
         style="stop-color:#ffffff;stop-opacity:0.86725664;"
         offset="1"
         id="stop3261" />
    </linearGradient>
    <linearGradient
       id="linearGradient3597">
      <stop
         id="stop3599"
         offset="0"
         style="stop-color:#808080;stop-opacity:1;" />
      <stop
         id="stop3601"
         offset="1"
         style="stop-color:#404040;stop-opacity:1;" />
    </linearGradient>
    <linearGradient
       id="linearGradient3574">
      <stop
         style="stop-color:#818080;stop-opacity:1;"
         offset="0"
         id="stop3576" />
      <stop
         style="stop-color:#ebebeb;stop-opacity:1;"
         offset="1"
         id="stop3578" />
    </linearGradient>
    <inkscape:perspective
       sodipodi:type="inkscape:persp3d"
       inkscape:vp_x="0 : 526.18109 : 1"
       inkscape:vp_y="0 : 1000 : 0"
       inkscape:vp_z="744.09448 : 526.18109 : 1"
       inkscape:persp3d-origin="372.04724 : 350.78739 : 1"
       id="perspective2669" />
    <linearGradient
       inkscape:collect="always"
       xlink:href="#linearGradient3574"
       id="linearGradient3839"
       gradientUnits="userSpaceOnUse"
       gradientTransform="translate(-159.40625,3.9375)"
       x1="188"
       y1="220"
       x2="204"
       y2="148" />
    <radialGradient
       inkscape:collect="always"
       xlink:href="#linearGradient3597"
       id="radialGradient3841"
       gradientUnits="userSpaceOnUse"
       gradientTransform="matrix(1,0,0,1.210121,-159.40625,-29.537404)"
       cx="186.29688"
       cy="159.3125"
       fx="186.29688"
       fy="159.3125"
       r="14.203125" />
    <linearGradient
       inkscape:collect="always"
       xlink:href="#linearGradient3257"
       id="linearGradient3843"
       gradientUnits="userSpaceOnUse"
       gradientTransform="translate(96,16)"
       x1="-40"
       y1="40"
       x2="-72"
       y2="8" />
    <linearGradient
       inkscape:collect="always"
       xlink:href="#linearGradient3574"
       id="linearGradient3869"
       gradientUnits="userSpaceOnUse"
       gradientTransform="matrix(0.7048018,0,0,0.7048018,-118.30339,-34.169962)"
       x1="188"
       y1="220"
       x2="204"
       y2="148" />
    <radialGradient
       inkscape:collect="always"
       xlink:href="#linearGradient3597"
       id="radialGradient3871"
       gradientUnits="userSpaceOnUse"
       gradientTransform="matrix(1,0,0,1.210121,-159.40625,-29.537404)"
       cx="186.29688"
       cy="159.3125"
       fx="186.29688"
       fy="159.3125"
       r="14.203125" />
    <linearGradient
       inkscape:collect="always"
       xlink:href="#linearGradient3257"
       id="linearGradient3873"
       gradientUnits="userSpaceOnUse"
       gradientTransform="translate(96,16)"
       x1="-40"
       y1="40"
       x2="-72"
       y2="8" />
    <linearGradient
       inkscape:collect="always"
       xlink:href="#linearGradient3574"
       id="linearGradient3899"
       gradientUnits="userSpaceOnUse"
       gradientTransform="translate(-159.40625,3.9375)"
       x1="188"
       y1="220"
       x2="204"
       y2="148" />
    <radialGradient
       inkscape:collect="always"
       xlink:href="#linearGradient3597"
       id="radialGradient3901"
       gradientUnits="userSpaceOnUse"
       gradientTransform="matrix(1,0,0,1.210121,-159.40625,-29.537404)"
       cx="186.29688"
       cy="159.3125"
       fx="186.29688"
       fy="159.3125"
       r="14.203125" />
    <linearGradient
       inkscape:collect="always"
       xlink:href="#linearGradient3257"
       id="linearGradient3903"
       gradientUnits="userSpaceOnUse"
       gradientTransform="translate(96,16)"
       x1="-40"
       y1="40"
       x2="-72"
       y2="8" />
    <linearGradient
       inkscape:collect="always"
       xlink:href="#linearGradient3574"
       id="linearGradient3929"
       gradientUnits="userSpaceOnUse"
       gradientTransform="translate(-159.40625,3.9375)"
       x1="188"
       y1="220"
       x2="204"
       y2="148" />
    <radialGradient
       inkscape:collect="always"
       xlink:href="#linearGradient3597"
       id="radialGradient3931"
       gradientUnits="userSpaceOnUse"
       gradientTransform="matrix(1,0,0,1.210121,-159.40625,-29.537404)"
       cx="186.29688"
       cy="159.3125"
       fx="186.29688"
       fy="159.3125"
       r="14.203125" />
    <linearGradient
       inkscape:collect="always"
       xlink:href="#linearGradient3257"
       id="linearGradient3933"
       gradientUnits="userSpaceOnUse"
       gradientTransform="translate(96,16)"
       x1="-40"
       y1="40"
       x2="-72"
       y2="8" />
    <linearGradient
       inkscape:collect="always"
       xlink:href="#linearGradient3574"
       id="linearGradient3999"
       gradientUnits="userSpaceOnUse"
       gradientTransform="translate(-159.40625,3.9375)"
       x1="188"
       y1="220"
       x2="204"
       y2="148" />
    <radialGradient
       inkscape:collect="always"
       xlink:href="#linearGradient3597"
       id="radialGradient4001"
       gradientUnits="userSpaceOnUse"
       gradientTransform="matrix(1,0,0,1.210121,-159.40625,-29.537404)"
       cx="186.29688"
       cy="159.3125"
       fx="186.29688"
       fy="159.3125"
       r="14.203125" />
    <linearGradient
       inkscape:collect="always"
       xlink:href="#linearGradient3574"
       id="linearGradient4014"
       gradientUnits="userSpaceOnUse"
       gradientTransform="translate(-159.40625,3.9375)"
       x1="188"
       y1="220"
       x2="204"
       y2="148" />
    <radialGradient
       inkscape:collect="always"
       xlink:href="#linearGradient3597"
       id="radialGradient4016"
       gradientUnits="userSpaceOnUse"
       gradientTransform="matrix(1,0,0,1.210121,-159.40625,-29.537404)"
       cx="186.29688"
       cy="159.3125"
       fx="186.29688"
       fy="159.3125"
       r="14.203125" />
    <linearGradient
       inkscape:collect="always"
       xlink:href="#linearGradient3574"
       id="linearGradient4028"
       gradientUnits="userSpaceOnUse"
       gradientTransform="translate(-159.40625,3.9375)"
       x1="188"
       y1="220"
       x2="204"
       y2="148" />
    <radialGradient
       inkscape:collect="always"
       xlink:href="#linearGradient3597"
       id="radialGradient4030"
       gradientUnits="userSpaceOnUse"
       gradientTransform="matrix(1,0,0,1.210121,-159.40625,-29.537404)"
       cx="186.29688"
       cy="159.3125"
       fx="186.29688"
       fy="159.3125"
       r="14.203125" />
    <linearGradient
       inkscape:collect="always"
       xlink:href="#linearGradient3574"
       id="linearGradient4035"
       gradientUnits="userSpaceOnUse"
       gradientTransform="matrix(0.7048018,0,0,0.7048018,-118.30339,-34.169962)"
       x1="188"
       y1="220"
       x2="204"
       y2="148" />
    <linearGradient
       inkscape:collect="always"
       xlink:href="#linearGradient3597"
       id="linearGradient4065"
       x1="21.341181"
       y1="74"
       x2="23.341181"
       y2="84"
       gradientUnits="userSpaceOnUse" />
    <linearGradient
       inkscape:collect="always"
       xlink:href="#linearGradient3574"
       id="linearGradient4103"
       gradientUnits="userSpaceOnUse"
       gradientTransform="matrix(0.7048018,0,0,0.7048018,-118.30339,-34.169962)"
       x1="188"
       y1="220"
       x2="204"
       y2="148" />
    <linearGradient
       inkscape:collect="always"
       xlink:href="#linearGradient3574"
       id="linearGradient4139"
       gradientUnits="userSpaceOnUse"
       gradientTransform="matrix(0.7048018,0,0,0.7048018,-118.30339,-34.169962)"
       x1="188"
       y1="220"
       x2="204"
       y2="148" />
    <linearGradient
       inkscape:collect="always"
       xlink:href="#linearGradient3597"
       id="linearGradient4141"
       gradientUnits="userSpaceOnUse"
       x1="21.341181"
       y1="74"
       x2="23.341181"
       y2="84" />
    <linearGradient
       inkscape:collect="always"
       xlink:href="#linearGradient3574"
       id="linearGradient4151"
       gradientUnits="userSpaceOnUse"
       gradientTransform="matrix(0.7048018,0,0,0.7048018,-118.30339,-34.169962)"
       x1="188"
       y1="220"
       x2="204"
       y2="148" />
  </defs>
  <sodipodi:namedview
     id="base"
     pagecolor="#ffffff"
     bordercolor="#666666"
     borderopacity="1.0"
     gridtolerance="10000"
     guidetolerance="10"
     objecttolerance="10"
     inkscape:pageopacity="0.0"
     inkscape:pageshadow="2"
     inkscape:zoom="2.8284271"
     inkscape:cx="100.99301"
     inkscape:cy="28.559923"
     inkscape:document-units="px"
     inkscape:current-layer="layer1"
     showgrid="true"
     inkscape:window-width="1200"
     inkscape:window-height="1553"
     inkscape:window-x="0"
     inkscape:window-y="20"
     inkscape:snap-bbox="true"
     inkscape:snap-nodes="true"
     inkscape:object-paths="true">
    <inkscape:grid
       type="xygrid"
       id="grid2691"
       visible="true"
       enabled="true"
       spacingx="1px"
       spacingy="1px"
       empspacing="4" />
  </sodipodi:namedview>
  <metadata
     id="metadata2666">
    <rdf:RDF>
      <cc:Work
         rdf:about="">
        <dc:format>image/svg+xml</dc:format>
        <dc:type
           rdf:resource="http://purl.org/dc/dcmitype/StillImage" />
      </cc:Work>
    </rdf:RDF>
  </metadata>
  <g
     inkscape:label="Layer 1"
     inkscape:groupmode="layer"
     id="layer1">
    <g
       id="g3613"
       transform="matrix(0.7048018,0,0,0.7048018,-5.9535807,91.054881)">
      <path
         id="path3585"
         d="M 13.1875,176 C 10.52517,190.51596 11.64859,207.99883 16.59375,219.9375 C 17.89262,223.07325 21.458,226.63863 24.59375,227.9375 C 33.46299,231.61126 47.72451,231.61126 56.59375,227.9375 C 59.7295,226.63863 63.29488,223.07325 64.59375,219.9375 C 71.02283,204.41632 71.02283,179.45868 64.59375,163.9375 C 61.99601,157.666 54.86525,150.53524 48.59375,147.9375 C 46.37644,147.01906 43.4851,146.5625 40.59375,146.5625 C 40.59375,149.51772 40.59375,179.9375 40.59375,179.9375 C 40.59375,179.9375 34.09375,179.6875 27.21875,178.9375 C 23.78125,178.5625 20.26563,178.0625 17.40625,177.40625 C 15.97656,177.07812 14.68555,176.72266 13.6875,176.3125 C 13.45263,176.21598 13.39192,176.10133 13.1875,176 z"
         style="fill:url(#linearGradient4028);fill-opacity:1;fill-rule:evenodd;stroke:#000000;stroke-width:1px;stroke-linecap:butt;stroke-linejoin:miter;stroke-opacity:1" />
      <path
         id="path3530"
         d="M 13.1875,176 C 13.39192,176.10133 13.45263,176.21598 13.6875,176.3125 C 14.68555,176.72266 15.97656,177.07812 17.40625,177.40625 C 20.26563,178.0625 23.78125,178.5625 27.21875,178.9375 C 34.09375,179.6875 40.59375,179.9375 40.59375,179.9375 C 40.59375,179.9375 40.59375,149.51772 40.59375,146.5625 C 37.7024,146.5625 34.81106,147.01906 32.59375,147.9375 C 26.32225,150.53524 19.19149,157.666 16.59375,163.9375 C 15.10983,167.52001 13.9864,171.6441 13.1875,176 z"
         style="fill:url(#radialGradient4030);fill-opacity:1;fill-rule:evenodd;stroke:#000000;stroke-width:1px;stroke-linecap:butt;stroke-linejoin:miter;stroke-opacity:1" />
      <path
         id="path3607"
         d="M 68,176 C 67.79558,176.10133 67.73487,176.21598 67.5,176.3125 C 66.50195,176.72266 65.21094,177.07812 63.78125,177.40625 C 60.92187,178.0625 57.40625,178.5625 53.96875,178.9375 C 47.09375,179.6875 40.59375,179.9375 40.59375,179.9375 C 40.59375,179.9375 40.59375,149.51772 40.59375,146.5625 C 43.4851,146.5625 46.37644,147.01906 48.59375,147.9375 C 54.86525,150.53524 61.99601,157.666 64.59375,163.9375 C 66.07767,167.52001 67.2011,171.6441 68,176 z"
         style="fill:none;fill-opacity:1;fill-rule:evenodd;stroke:#000000;stroke-width:1px;stroke-linecap:butt;stroke-linejoin:miter;stroke-opacity:1" />
    </g>
    <g
       id="g3286"
       transform="matrix(0.3524009,0,0,0.3524009,90.31794,10.369519)">
      <rect
         ry="23.784994"
         y="0"
         x="0"
         height="128"
         width="128"
         id="rect3288"
         style="fill:#0000ff;fill-rule:evenodd;stroke:#ffffff;stroke-width:1px;stroke-linecap:butt;stroke-linejoin:miter;stroke-opacity:1" />
      <rect
         ry="23.784994"
         y="8"
         x="8"
         height="112"
         width="112"
         id="rect3290"
         style="fill:url(#linearGradient3843);fill-opacity:1;fill-rule:evenodd;stroke:none;stroke-width:1px;stroke-linecap:butt;stroke-linejoin:miter;stroke-opacity:1" />
      <path
         sodipodi:nodetypes="cccccccc"
         id="path3292"
         d="M 64,104 L 64,84 L 24,84 L 24,44 L 64,44 L 64,24 L 104,64 L 64,104 z"
         style="fill:#ffffff;fill-opacity:1;fill-rule:evenodd;stroke:#ff0000;stroke-width:6.375;stroke-linecap:butt;stroke-linejoin:miter;stroke-miterlimit:4;stroke-dasharray:none;stroke-opacity:1" />
    </g>
    <text
       xml:space="preserve"
       style="font-size:52.98661423px;font-style:normal;font-variant:normal;font-weight:normal;font-stretch:normal;text-align:center;line-height:100%;writing-mode:lr-tb;text-anchor:middle;fill:#000000;fill-opacity:1;stroke:none;stroke-width:1px;stroke-linecap:butt;stroke-linejoin:miter;stroke-opacity:1;font-family:Courier New;-inkscape-font-specification:Courier New"
       x="87.459877"
       y="41.605843"
       id="text3740"
       sodipodi:linespacing="100%"
       transform="scale(0.7695205,1.2995105)"><tspan
         sodipodi:role="line"
         id="tspan3742"
         x="87.459877"
         y="41.605843">=</tspan></text>
    <g
       transform="matrix(0.3524009,0,0,0.3524009,90.31794,74.369519)"
       id="g3857">
      <rect
         style="fill:#0000ff;fill-rule:evenodd;stroke:#ffffff;stroke-width:1px;stroke-linecap:butt;stroke-linejoin:miter;stroke-opacity:1"
         id="rect3859"
         width="128"
         height="128"
         x="0"
         y="0"
         ry="23.784994" />
      <rect
         style="fill:url(#linearGradient3873);fill-opacity:1;fill-rule:evenodd;stroke:none;stroke-width:1px;stroke-linecap:butt;stroke-linejoin:miter;stroke-opacity:1"
         id="rect3861"
         width="112"
         height="112"
         x="8"
         y="8"
         ry="23.784994" />
      <path
         style="fill:#ffffff;fill-opacity:1;fill-rule:evenodd;stroke:#ff0000;stroke-width:6.375;stroke-linecap:butt;stroke-linejoin:miter;stroke-miterlimit:4;stroke-dasharray:none;stroke-opacity:1"
         d="M 104,64 L 84,64 L 84,104 L 44,104 L 44,64 L 24,64 L 64,24 L 104,64 z"
         id="path3863"
         sodipodi:nodetypes="cccccccc" />
    </g>
    <text
       transform="scale(0.7695205,1.2995105)"
       sodipodi:linespacing="100%"
       id="text3865"
       y="90.855156"
       x="87.459877"
       style="font-size:52.98661423px;font-style:normal;font-variant:normal;font-weight:normal;font-stretch:normal;text-align:center;line-height:100%;writing-mode:lr-tb;text-anchor:middle;fill:#000000;fill-opacity:1;stroke:none;stroke-width:1px;stroke-linecap:butt;stroke-linejoin:miter;stroke-opacity:1;font-family:Courier New;-inkscape-font-specification:Courier New"
       xml:space="preserve"><tspan
         y="90.855156"
         x="87.459877"
         id="tspan3867"
         sodipodi:role="line">=</tspan></text>
    <g
       id="g3887"
       transform="matrix(0.3524009,0,0,0.3524009,90.31794,138.36952)">
      <rect
         ry="23.784994"
         y="0"
         x="0"
         height="128"
         width="128"
         id="rect3889"
         style="fill:#0000ff;fill-rule:evenodd;stroke:#ffffff;stroke-width:1px;stroke-linecap:butt;stroke-linejoin:miter;stroke-opacity:1" />
      <rect
         ry="23.784994"
         y="8"
         x="8"
         height="112"
         width="112"
         id="rect3891"
         style="fill:url(#linearGradient3903);fill-opacity:1;fill-rule:evenodd;stroke:none;stroke-width:1px;stroke-linecap:butt;stroke-linejoin:miter;stroke-opacity:1" />
      <path
         sodipodi:nodetypes="cccccccc"
         id="path3893"
         d="M 24,64 L 44,64 L 44,24 L 84,24 L 84,64 L 104,64 L 64,104 L 24,64 z"
         style="fill:#ffffff;fill-opacity:1;fill-rule:evenodd;stroke:#ff0000;stroke-width:6.375;stroke-linecap:butt;stroke-linejoin:miter;stroke-miterlimit:4;stroke-dasharray:none;stroke-opacity:1" />
    </g>
    <text
       xml:space="preserve"
       style="font-size:52.98661423px;font-style:normal;font-variant:normal;font-weight:normal;font-stretch:normal;text-align:center;line-height:100%;writing-mode:lr-tb;text-anchor:middle;fill:#000000;fill-opacity:1;stroke:none;stroke-width:1px;stroke-linecap:butt;stroke-linejoin:miter;stroke-opacity:1;font-family:Courier New;-inkscape-font-specification:Courier New"
       x="87.459877"
       y="140.10446"
       id="text3895"
       sodipodi:linespacing="100%"
       transform="scale(0.7695205,1.2995105)"><tspan
         sodipodi:role="line"
         id="tspan3897"
         x="87.459877"
         y="140.10446">=</tspan></text>
    <g
       transform="matrix(-0.7048018,0,0,0.7048018,51.276613,-100.94512)"
       id="g3907">
      <g
         id="g3991">
        <path
           id="path3909"
           d="M 13.1875,176 C 10.52517,190.51596 11.64859,207.99883 16.59375,219.9375 C 17.89262,223.07325 21.458,226.63863 24.59375,227.9375 C 33.46299,231.61126 47.72451,231.61126 56.59375,227.9375 C 59.7295,226.63863 63.29488,223.07325 64.59375,219.9375 C 71.02283,204.41632 71.02283,179.45868 64.59375,163.9375 C 61.99601,157.666 54.86525,150.53524 48.59375,147.9375 C 46.37644,147.01906 43.4851,146.5625 40.59375,146.5625 C 40.59375,149.51772 40.59375,179.9375 40.59375,179.9375 C 40.59375,179.9375 34.09375,179.6875 27.21875,178.9375 C 23.78125,178.5625 20.26563,178.0625 17.40625,177.40625 C 15.97656,177.07812 14.68555,176.72266 13.6875,176.3125 C 13.45263,176.21598 13.39192,176.10133 13.1875,176 z"
           style="fill:url(#linearGradient4014);fill-opacity:1;fill-rule:evenodd;stroke:#000000;stroke-width:1px;stroke-linecap:butt;stroke-linejoin:miter;stroke-opacity:1" />
        <path
           id="path3911"
           d="M 13.1875,176 C 13.39192,176.10133 13.45263,176.21598 13.6875,176.3125 C 14.68555,176.72266 15.97656,177.07812 17.40625,177.40625 C 20.26563,178.0625 23.78125,178.5625 27.21875,178.9375 C 34.09375,179.6875 40.59375,179.9375 40.59375,179.9375 C 40.59375,179.9375 40.59375,149.51772 40.59375,146.5625 C 37.7024,146.5625 34.81106,147.01906 32.59375,147.9375 C 26.32225,150.53524 19.19149,157.666 16.59375,163.9375 C 15.10983,167.52001 13.9864,171.6441 13.1875,176 z"
           style="fill:url(#radialGradient4016);fill-opacity:1;fill-rule:evenodd;stroke:#000000;stroke-width:1px;stroke-linecap:butt;stroke-linejoin:miter;stroke-opacity:1" />
      </g>
      <path
         style="fill:none;fill-opacity:1;fill-rule:evenodd;stroke:#000000;stroke-width:1px;stroke-linecap:butt;stroke-linejoin:miter;stroke-opacity:1"
         d="M 68,176 C 67.79558,176.10133 67.73487,176.21598 67.5,176.3125 C 66.50195,176.72266 65.21094,177.07812 63.78125,177.40625 C 60.92187,178.0625 57.40625,178.5625 53.96875,178.9375 C 47.09375,179.6875 40.59375,179.9375 40.59375,179.9375 C 40.59375,179.9375 40.59375,149.51772 40.59375,146.5625 C 43.4851,146.5625 46.37644,147.01906 48.59375,147.9375 C 54.86525,150.53524 61.99601,157.666 64.59375,163.9375 C 66.07767,167.52001 67.2011,171.6441 68,176 z"
         id="path3913" />
    </g>
    <g
       transform="matrix(0.3524009,0,0,0.3524009,90.31794,202.36952)"
       id="g3917">
      <rect
         style="fill:#0000ff;fill-rule:evenodd;stroke:#ffffff;stroke-width:1px;stroke-linecap:butt;stroke-linejoin:miter;stroke-opacity:1"
         id="rect3919"
         width="128"
         height="128"
         x="0"
         y="0"
         ry="23.784994" />
      <rect
         style="fill:url(#linearGradient3933);fill-opacity:1;fill-rule:evenodd;stroke:none;stroke-width:1px;stroke-linecap:butt;stroke-linejoin:miter;stroke-opacity:1"
         id="rect3921"
         width="112"
         height="112"
         x="8"
         y="8"
         ry="23.784994" />
      <path
         style="fill:#ffffff;fill-opacity:1;fill-rule:evenodd;stroke:#ff0000;stroke-width:6.375;stroke-linecap:butt;stroke-linejoin:miter;stroke-miterlimit:4;stroke-dasharray:none;stroke-opacity:1"
         d="M 64,104 L 64,84 L 104,84 L 104,44 L 64,44 L 64,24 L 24,64 L 64,104 z"
         id="path3923"
         sodipodi:nodetypes="cccccccc" />
    </g>
    <text
       transform="scale(0.7695205,1.2995105)"
       sodipodi:linespacing="100%"
       id="text3925"
       y="189.35378"
       x="87.459877"
       style="font-size:52.98661423px;font-style:normal;font-variant:normal;font-weight:normal;font-stretch:normal;text-align:center;line-height:100%;writing-mode:lr-tb;text-anchor:middle;fill:#000000;fill-opacity:1;stroke:none;stroke-width:1px;stroke-linecap:butt;stroke-linejoin:miter;stroke-opacity:1;font-family:Courier New;-inkscape-font-specification:Courier New"
       xml:space="preserve"><tspan
         y="189.35378"
         x="87.459877"
         id="tspan3927"
         sodipodi:role="line">=</tspan></text>
    <g
       id="g4081">
      <g
         id="g4047">
        <g
           transform="matrix(0.7048018,0,0,0.7048018,-5.9535807,-36.945119)"
           id="g3847">
          <path
             id="path3849"
             transform="matrix(1.4188386,0,0,1.4188386,8.4471701,52.419161)"
             d="M 22.65625,66.34375 C 20.618422,66.343751 18.594014,66.665182 17.03125,67.3125 C 12.611086,69.143394 7.5808918,74.173586 5.75,78.59375 C 4.7041306,81.118708 3.9068162,84.023704 3.34375,87.09375 C 1.4673351,97.324624 2.2646423,109.6481 5.75,118.0625 C 6.665446,120.27258 9.1649178,122.8033 11.375,123.71875 C 17.626056,126.30802 27.686444,126.30802 33.9375,123.71875 C 36.147582,122.8033 38.647054,120.27258 39.5625,118.0625 C 44.093725,107.12314 44.093727,89.533106 39.5625,78.59375 C 37.731607,74.173584 32.701414,69.143392 28.28125,67.3125 C 26.718486,66.665184 24.694079,66.34375 22.65625,66.34375 z"
             style="fill:url(#linearGradient4035);fill-opacity:1;fill-rule:evenodd;stroke:#000000;stroke-width:0.7048018px;stroke-linecap:butt;stroke-linejoin:miter;stroke-opacity:1" />
          <path
             style="fill:none;fill-opacity:1;fill-rule:evenodd;stroke:#000000;stroke-width:1px;stroke-linecap:butt;stroke-linejoin:miter;stroke-opacity:1"
             d="M 68,176 C 67.79558,176.10133 67.73487,176.21598 67.5,176.3125 C 66.50195,176.72266 65.21094,177.07812 63.78125,177.40625 C 60.92187,178.0625 57.40625,178.5625 53.96875,178.9375 C 47.09375,179.6875 40.59375,179.9375 40.59375,179.9375 C 40.59375,179.9375 40.59375,149.51772 40.59375,146.5625 C 43.4851,146.5625 46.37644,147.01906 48.59375,147.9375 C 54.86525,150.53524 61.99601,157.666 64.59375,163.9375 C 66.07767,167.52001 67.2011,171.6441 68,176 z"
             id="path3853" />
          <path
             id="path4033"
             d="M 13.164583,175.98902 C 13.369003,176.09035 13.429713,176.205 13.664583,176.30152 C 14.662633,176.71168 15.953643,177.06714 17.383333,177.39527 C 20.242713,178.05152 23.758333,178.55152 27.195833,178.92652 C 34.070833,179.67652 40.570833,179.92652 40.570833,179.92652 C 40.570833,179.92652 40.570833,149.50674 40.570833,146.55152 C 37.679483,146.55152 34.788143,147.00808 32.570833,147.92652 C 26.299333,150.52426 19.168573,157.65502 16.570833,163.92652 C 15.086913,167.50903 13.963483,171.63312 13.164583,175.98902 z"
             style="fill:none;fill-opacity:1;fill-rule:evenodd;stroke:#000000;stroke-width:1px;stroke-linecap:butt;stroke-linejoin:miter;stroke-opacity:1" />
        </g>
      </g>
      <path
         id="path4069"
         d="M 21.158819,74.5 L 24.158819,74.5 L 24.158819,68.5 L 27.158819,68.5 L 22.658819,62.5 L 18.158819,68.5 L 21.158819,68.5 L 21.158819,74.5 z"
         style="fill:#ff0000;fill-opacity:1;fill-rule:evenodd;stroke:#000000;stroke-width:1.5px;stroke-linecap:butt;stroke-linejoin:miter;stroke-opacity:1" />
    </g>
    <path
       sodipodi:type="arc"
       style="fill:url(#linearGradient4065);fill-opacity:1;fill-rule:nonzero;stroke:#000000;stroke-width:1;stroke-linecap:round;stroke-linejoin:round;marker:none;marker-start:none;marker-mid:none;marker-end:none;stroke-miterlimit:4;stroke-dasharray:none;stroke-dashoffset:0;stroke-opacity:1;visibility:visible;display:inline;overflow:visible;enable-background:accumulate"
       id="path4055"
       sodipodi:cx="22"
       sodipodi:cy="80"
       sodipodi:rx="2"
       sodipodi:ry="6"
       d="M 24,80 A 2,6 0 1 1 20,80 A 2,6 0 1 1 24,80 z"
       transform="translate(0.6588192,0)" />
    <g
       id="g4125"
       transform="translate(0,64)">
      <g
         transform="matrix(0.7048018,0,0,0.7048018,-5.9535807,-36.945119)"
         id="g4127">
        <path
           id="path4129"
           transform="matrix(1.4188386,0,0,1.4188386,8.4471701,52.419161)"
           d="M 22.65625,66.34375 C 20.618422,66.343751 18.594014,66.665182 17.03125,67.3125 C 12.611086,69.143394 7.5808918,74.173586 5.75,78.59375 C 4.7041306,81.118708 3.9068162,84.023704 3.34375,87.09375 C 1.4673351,97.324624 2.2646423,109.6481 5.75,118.0625 C 6.665446,120.27258 9.1649178,122.8033 11.375,123.71875 C 17.626056,126.30802 27.686444,126.30802 33.9375,123.71875 C 36.147582,122.8033 38.647054,120.27258 39.5625,118.0625 C 44.093725,107.12314 44.093727,89.533106 39.5625,78.59375 C 37.731607,74.173584 32.701414,69.143392 28.28125,67.3125 C 26.718486,66.665184 24.694079,66.34375 22.65625,66.34375 z"
           style="fill:url(#linearGradient4151);fill-opacity:1;fill-rule:evenodd;stroke:#000000;stroke-width:0.7048018px;stroke-linecap:butt;stroke-linejoin:miter;stroke-opacity:1" />
        <path
           style="fill:none;fill-opacity:1;fill-rule:evenodd;stroke:#000000;stroke-width:1px;stroke-linecap:butt;stroke-linejoin:miter;stroke-opacity:1"
           d="M 68,176 C 67.79558,176.10133 67.73487,176.21598 67.5,176.3125 C 66.50195,176.72266 65.21094,177.07812 63.78125,177.40625 C 60.92187,178.0625 57.40625,178.5625 53.96875,178.9375 C 47.09375,179.6875 40.59375,179.9375 40.59375,179.9375 C 40.59375,179.9375 40.59375,149.51772 40.59375,146.5625 C 43.4851,146.5625 46.37644,147.01906 48.59375,147.9375 C 54.86525,150.53524 61.99601,157.666 64.59375,163.9375 C 66.07767,167.52001 67.2011,171.6441 68,176 z"
           id="path4131" />
        <path
           id="path4133"
           d="M 13.164583,175.98902 C 13.369003,176.09035 13.429713,176.205 13.664583,176.30152 C 14.662633,176.71168 15.953643,177.06714 17.383333,177.39527 C 20.242713,178.05152 23.758333,178.55152 27.195833,178.92652 C 34.070833,179.67652 40.570833,179.92652 40.570833,179.92652 C 40.570833,179.92652 40.570833,149.50674 40.570833,146.55152 C 37.679483,146.55152 34.788143,147.00808 32.570833,147.92652 C 26.299333,150.52426 19.168573,157.65502 16.570833,163.92652 C 15.086913,167.50903 13.963483,171.63312 13.164583,175.98902 z"
           style="fill:none;fill-opacity:1;fill-rule:evenodd;stroke:#000000;stroke-width:1px;stroke-linecap:butt;stroke-linejoin:miter;stroke-opacity:1" />
      </g>
    </g>
    <path
       transform="translate(0.6588192,64)"
       d="M 24,80 A 2,6 0 1 1 20,80 A 2,6 0 1 1 24,80 z"
       sodipodi:ry="6"
       sodipodi:rx="2"
       sodipodi:cy="80"
       sodipodi:cx="22"
       id="path4137"
       style="fill:url(#linearGradient4141);fill-opacity:1;fill-rule:nonzero;stroke:#000000;stroke-width:1;stroke-linecap:round;stroke-linejoin:round;marker:none;marker-start:none;marker-mid:none;marker-end:none;stroke-miterlimit:4;stroke-dasharray:none;stroke-dashoffset:0;stroke-opacity:1;visibility:visible;display:inline;overflow:visible;enable-background:accumulate"
       sodipodi:type="arc" />
    <path
       id="path4135"
       d="M 21.158819,149 L 24.158819,149 L 24.158819,155 L 27.158819,155 L 22.658819,161 L 18.158819,155 L 21.158819,155 L 21.158819,149 z"
       style="fill:#ff0000;fill-opacity:1;fill-rule:evenodd;stroke:#000000;stroke-width:1.5px;stroke-linecap:butt;stroke-linejoin:miter;stroke-opacity:1" />
  </g>
</svg>
