<?xml version="1.0" encoding="UTF-8" standalone="no"?>
<!-- Created with Inkscape (http://www.inkscape.org/) -->
<svg
   xmlns:dc="http://purl.org/dc/elements/1.1/"
   xmlns:cc="http://creativecommons.org/ns#"
   xmlns:rdf="http://www.w3.org/1999/02/22-rdf-syntax-ns#"
   xmlns:svg="http://www.w3.org/2000/svg"
   xmlns="http://www.w3.org/2000/svg"
   xmlns:sodipodi="http://sodipodi.sourceforge.net/DTD/sodipodi-0.dtd"
   xmlns:inkscape="http://www.inkscape.org/namespaces/inkscape"
   width="96"
   height="500"
   id="svg2"
   sodipodi:version="0.32"
   inkscape:version="0.46"
   version="1.0"
   sodipodi:docname="FailAnimation.svg"
   inkscape:output_extension="org.inkscape.output.svg.inkscape"
   inkscape:export-filename="C:\Documents and Settings\Edward\My Documents\Visual Studio 2005\Projects\Shoko-Rocket\src\ShokoRocket++\Sprites\FailAnimation.png"
   inkscape:export-xdpi="90"
   inkscape:export-ydpi="90">
  <defs
     id="defs4">
    <inkscape:perspective
       sodipodi:type="inkscape:persp3d"
       inkscape:vp_x="0 : 526.18109 : 1"
       inkscape:vp_y="0 : 1000 : 0"
       inkscape:vp_z="744.09448 : 526.18109 : 1"
       inkscape:persp3d-origin="372.04724 : 350.78739 : 1"
       id="perspective10" />
    <filter
       inkscape:collect="always"
       id="filter3690">
      <feGaussianBlur
         inkscape:collect="always"
         stdDeviation="0.59513672"
         id="feGaussianBlur3692" />
    </filter>
    <filter
       inkscape:collect="always"
       id="filter3717">
      <feGaussianBlur
         inkscape:collect="always"
         stdDeviation="0.53845703"
         id="feGaussianBlur3719" />
    </filter>
    <filter
       inkscape:collect="always"
       id="filter3734">
      <feGaussianBlur
         inkscape:collect="always"
         stdDeviation="0.89393421"
         id="feGaussianBlur3736" />
    </filter>
    <filter
       inkscape:collect="always"
       id="filter3764">
      <feGaussianBlur
         inkscape:collect="always"
         stdDeviation="1.3999797"
         id="feGaussianBlur3766" />
    </filter>
    <filter
       inkscape:collect="always"
       id="filter3794">
      <feGaussianBlur
         inkscape:collect="always"
         stdDeviation="1.6679692"
         id="feGaussianBlur3796" />
    </filter>
    <filter
       inkscape:collect="always"
       id="filter3814">
      <feGaussianBlur
         inkscape:collect="always"
         stdDeviation="1.2843756"
         id="feGaussianBlur3816" />
    </filter>
    <filter
       inkscape:collect="always"
       id="filter3884">
      <feGaussianBlur
         inkscape:collect="always"
         stdDeviation="0.91828154"
         id="feGaussianBlur3886" />
    </filter>
    <filter
       inkscape:collect="always"
       id="filter3924">
      <feGaussianBlur
         inkscape:collect="always"
         stdDeviation="0.76523461"
         id="feGaussianBlur3926" />
    </filter>
    <filter
       inkscape:collect="always"
       id="filter3928">
      <feGaussianBlur
         inkscape:collect="always"
         stdDeviation="0.59093814"
         id="feGaussianBlur3930" />
    </filter>
    <filter
       inkscape:collect="always"
       id="filter3932">
      <feGaussianBlur
         inkscape:collect="always"
         stdDeviation="0.429148"
         id="feGaussianBlur3934" />
    </filter>
  </defs>
  <sodipodi:namedview
     id="base"
     pagecolor="#ffffff"
     bordercolor="#666666"
     borderopacity="1.0"
     gridtolerance="10000"
     guidetolerance="10"
     objecttolerance="10"
     inkscape:pageopacity="0.0"
     inkscape:pageshadow="2"
     inkscape:zoom="6.51"
     inkscape:cx="43.061278"
     inkscape:cy="204.48964"
     inkscape:document-units="px"
     inkscape:current-layer="layer1"
     showgrid="true"
     inkscape:window-width="1180"
     inkscape:window-height="742"
     inkscape:window-x="96"
     inkscape:window-y="-4">
    <inkscape:grid
       type="xygrid"
       id="grid3291"
       visible="true"
       enabled="true"
       empspacing="4"
       spacingx="4px"
       spacingy="4px" />
    <inkscape:grid
       type="xygrid"
       id="grid3437"
       visible="true"
       enabled="true"
       spacingx="96px"
       spacingy="50px"
       empspacing="1"
       color="#ff00ff"
       opacity="0.1254902"
       dotted="false"
       empcolor="#fb0000"
       empopacity="0.25098039" />
  </sodipodi:namedview>
  <metadata
     id="metadata7">
    <rdf:RDF>
      <cc:Work
         rdf:about="">
        <dc:format>image/svg+xml</dc:format>
        <dc:type
           rdf:resource="http://purl.org/dc/dcmitype/StillImage" />
      </cc:Work>
    </rdf:RDF>
  </metadata>
  <g
     inkscape:label="Layer 1"
     inkscape:groupmode="layer"
     id="layer1">
    <g
       id="g3745"
       style="opacity:0.25">
      <path
         transform="translate(-2.8789062,-8.655618)"
         d="M 10.4375,18.15625 C 9.4102929,18.260358 8.627813,19.123784 8.625,20.15625 L 8.625,47.34375 C 8.6335781,48.444747 9.5240032,49.335172 10.625,49.34375 L 16.125,49.34375 C 17.225997,49.335172 18.116422,48.444747 18.125,47.34375 L 18.125,37.78125 L 27.46875,37.78125 C 28.569747,37.772672 29.460172,36.882247 29.46875,35.78125 L 29.46875,31.1875 C 29.460172,30.086503 28.569747,29.196078 27.46875,29.1875 L 18.125,29.1875 L 18.125,26.75 L 29.28125,26.75 C 30.382247,26.741422 31.272672,25.850997 31.28125,24.75 L 31.28125,20.15625 C 31.272672,19.055253 30.382247,18.164828 29.28125,18.15625 L 10.625,18.15625 C 10.562534,18.153342 10.499966,18.153342 10.4375,18.15625 L 10.4375,18.15625 z M 41.46875,18.15625 C 40.709054,18.229432 40.055837,18.725393 39.78125,19.4375 L 29.1875,46.625 C 28.958106,47.241427 29.043877,47.931002 29.41729,48.472451 C 29.790703,49.013899 30.40479,49.339118 31.0625,49.34375 L 36.875,49.34375 C 37.723293,49.350953 38.485315,48.826281 38.78125,48.03125 L 40.5625,43.15625 L 48.625,43.15625 L 50.5,48.0625 C 50.802076,48.834507 51.545998,49.342854 52.375,49.34375 L 58.34375,49.34375 C 58.863465,49.354614 59.367285,49.164282 59.75,48.8125 C 60.124827,49.156824 60.616034,49.346609 61.125,49.34375 L 66.625,49.34375 C 67.725997,49.335172 68.616422,48.444747 68.625,47.34375 L 68.625,20.15625 C 68.616422,19.055253 67.725997,18.164828 66.625,18.15625 L 61.125,18.15625 C 60.024003,18.164828 59.133578,19.055253 59.125,20.15625 L 59.125,43.875 L 49.34375,19.40625 C 49.031759,18.646518 48.290037,18.152037 47.46875,18.15625 L 41.65625,18.15625 C 41.593784,18.153342 41.531216,18.153342 41.46875,18.15625 L 41.46875,18.15625 z M 71.78125,18.375 C 70.754043,18.479108 69.971563,19.342534 69.96875,20.375 L 69.96875,47.34375 C 69.977328,48.444747 70.867753,49.335172 71.96875,49.34375 L 91.125,49.34375 C 92.225997,49.335172 93.116422,48.444747 93.125,47.34375 L 93.125,42.75 C 93.116422,41.649003 92.225997,40.758578 91.125,40.75 L 79.46875,40.75 L 79.46875,20.375 C 79.460172,19.274003 78.569747,18.383578 77.46875,18.375 L 71.96875,18.375 C 71.906284,18.372092 71.843716,18.372092 71.78125,18.375 z M 44.53125,32.3125 L 45.375,34.59375 L 43.6875,34.59375 L 44.53125,32.3125 z"
         id="path3722"
         style="font-size:40px;font-style:normal;font-weight:normal;fill:#ff0000;fill-opacity:1;stroke:none;stroke-width:1px;stroke-linecap:butt;stroke-linejoin:miter;stroke-opacity:1;filter:url(#filter3717);font-family:Bitstream Vera Sans"
         inkscape:original="M 10.625 20.15625 L 10.625 47.34375 L 16.125 47.34375 L 16.125 35.78125 L 27.46875 35.78125 L 27.46875 31.1875 L 16.125 31.1875 L 16.125 24.75 L 29.28125 24.75 L 29.28125 20.15625 L 10.625 20.15625 z M 41.65625 20.15625 L 31.0625 47.34375 L 36.875 47.34375 L 39.125 41.15625 L 50 41.15625 L 52.375 47.34375 L 58.34375 47.34375 L 47.46875 20.15625 L 41.65625 20.15625 z M 61.125 20.15625 L 61.125 47.34375 L 66.625 47.34375 L 66.625 20.15625 L 61.125 20.15625 z M 71.96875 20.375 L 71.96875 47.34375 L 91.125 47.34375 L 91.125 42.75 L 77.46875 42.75 L 77.46875 20.375 L 71.96875 20.375 z M 44.5 26.5 L 48.25 36.59375 L 40.8125 36.59375 L 44.5 26.5 z "
         inkscape:radius="2.0155644"
         sodipodi:type="inkscape:offset" />
      <flowRoot
         xml:space="preserve"
         id="flowRoot3682"
         style="font-size:40px;font-style:normal;font-weight:normal;opacity:1;fill:#ffffff;fill-opacity:1;stroke:none;stroke-width:1px;stroke-linecap:butt;stroke-linejoin:miter;stroke-opacity:1;font-family:Bitstream Vera Sans"
         transform="translate(-2.8789062,-8.655618)"><flowRegion
           id="flowRegion3684"><rect
             id="rect3686"
             width="95.827332"
             height="46.449909"
             x="2.1468444"
             y="15.590916"
             style="font-size:40px;font-weight:normal;fill:#ffffff" /></flowRegion><flowPara
           id="flowPara3688"
           style="font-size:38px;font-style:normal;font-variant:normal;font-weight:bold;font-stretch:normal;text-align:center;line-height:125%;writing-mode:lr-tb;text-anchor:middle;fill:#ffffff;font-family:Arial;-inkscape-font-specification:Arial Bold">FAIL</flowPara></flowRoot>    </g>
    <g
       id="g3738"
       style="opacity:0.5">
      <path
         sodipodi:type="inkscape:offset"
         inkscape:radius="2.8838179"
         inkscape:original="M 10.625 20.15625 L 10.625 47.34375 L 16.125 47.34375 L 16.125 35.78125 L 27.46875 35.78125 L 27.46875 31.1875 L 16.125 31.1875 L 16.125 24.75 L 29.28125 24.75 L 29.28125 20.15625 L 10.625 20.15625 z M 41.65625 20.15625 L 31.0625 47.34375 L 36.875 47.34375 L 39.125 41.15625 L 50 41.15625 L 52.375 47.34375 L 58.34375 47.34375 L 47.46875 20.15625 L 41.65625 20.15625 z M 61.125 20.15625 L 61.125 47.34375 L 66.625 47.34375 L 66.625 20.15625 L 61.125 20.15625 z M 71.96875 20.375 L 71.96875 47.34375 L 91.125 47.34375 L 91.125 42.75 L 77.46875 42.75 L 77.46875 20.375 L 71.96875 20.375 z M 44.5 26.5 L 48.25 36.59375 L 40.8125 36.59375 L 44.5 26.5 z "
         style="font-size:40px;font-style:normal;font-weight:normal;fill:#ff0000;fill-opacity:1;stroke:none;stroke-width:1px;stroke-linecap:butt;stroke-linejoin:miter;stroke-opacity:1;filter:url(#filter3734);font-family:Bitstream Vera Sans"
         id="path3724"
         d="M 10.34375,17.28125 C 8.8687421,17.430501 7.7471491,18.673713 7.75,20.15625 L 7.75,47.34375 C 7.754999,48.929493 9.0392566,50.213751 10.625,50.21875 L 16.125,50.21875 C 17.710743,50.213751 18.995001,48.929493 19,47.34375 L 19,38.65625 L 27.46875,38.65625 C 29.054493,38.651251 30.338751,37.366993 30.34375,35.78125 L 30.34375,31.1875 C 30.338751,29.601757 29.054493,28.317499 27.46875,28.3125 L 19,28.3125 L 19,27.625 L 29.28125,27.625 C 30.866993,27.620001 32.151251,26.335743 32.15625,24.75 L 32.15625,20.15625 C 32.151251,18.570507 30.866993,17.286249 29.28125,17.28125 L 10.625,17.28125 C 10.531306,17.276676 10.437444,17.276676 10.34375,17.28125 z M 41.375,17.28125 C 40.296044,17.385233 39.366501,18.085408 38.96875,19.09375 L 28.375,46.28125 C 28.02652,47.169441 28.139852,48.172496 28.677724,48.960541 C 29.215597,49.748587 30.108392,50.219626 31.0625,50.21875 L 36.875,50.21875 C 38.084814,50.225849 39.170467,49.477122 39.59375,48.34375 L 41.15625,44.03125 L 48.03125,44.03125 L 49.6875,48.375 C 50.11694,49.485355 51.184493,50.217746 52.375,50.21875 L 58.34375,50.21875 C 58.823541,50.220321 59.296144,50.102171 59.71875,49.875 C 60.150652,50.107276 60.634648,50.225586 61.125,50.21875 L 66.625,50.21875 C 67.79633,50.210052 68.846056,49.493769 69.28125,48.40625 C 69.720697,49.504321 70.786017,50.222793 71.96875,50.21875 L 91.125,50.21875 C 92.710743,50.213751 93.995001,48.929493 94,47.34375 L 94,42.75 C 93.995001,41.164257 92.710743,39.879999 91.125,39.875 L 80.34375,39.875 L 80.34375,20.375 C 80.338751,18.789257 79.054493,17.504999 77.46875,17.5 L 71.96875,17.5 C 70.831393,17.505204 69.803305,18.178357 69.34375,19.21875 C 68.941384,18.060733 67.850926,17.283625 66.625,17.28125 L 61.125,17.28125 C 59.539257,17.286249 58.254999,18.570507 58.25,20.15625 L 58.25,39.3125 L 50.15625,19.09375 C 49.716803,17.995679 48.651483,17.277207 47.46875,17.28125 L 41.65625,17.28125 C 41.562556,17.276676 41.468694,17.276676 41.375,17.28125 z"
         transform="translate(-2.8789062,41.344382)" />
      <flowRoot
         transform="translate(-2.8789062,41.344382)"
         style="font-size:40px;font-style:normal;font-weight:normal;opacity:1;fill:#ffffff;fill-opacity:1;stroke:none;stroke-width:1px;stroke-linecap:butt;stroke-linejoin:miter;stroke-opacity:1;font-family:Bitstream Vera Sans"
         id="flowRoot3726"
         xml:space="preserve"><flowRegion
           id="flowRegion3728"><rect
             style="font-size:40px;font-weight:normal;fill:#ffffff"
             y="15.590916"
             x="2.1468444"
             height="46.449909"
             width="95.827332"
             id="rect3730" /></flowRegion><flowPara
           style="font-size:38px;font-style:normal;font-variant:normal;font-weight:bold;font-stretch:normal;text-align:center;line-height:125%;writing-mode:lr-tb;text-anchor:middle;fill:#ffffff;font-family:Arial;-inkscape-font-specification:Arial Bold"
           id="flowPara3732">FAIL</flowPara></flowRoot>    </g>
    <g
       id="g3752"
       transform="translate(0,50)"
       style="opacity:0.75">
      <path
         transform="translate(-2.8789062,41.344382)"
         d="M 10.21875,15.96875 C 8.0685688,16.183611 6.4325814,17.995366 6.4375,20.15625 L 6.4375,47.34375 C 6.4436815,49.653877 8.3148729,51.525068 10.625,51.53125 L 16.125,51.53125 C 18.435127,51.525068 20.306318,49.653877 20.3125,47.34375 L 20.3125,39.96875 L 27.46875,39.96875 C 28.252158,39.971486 29.020706,39.754993 29.6875,39.34375 L 27.15625,45.8125 C 26.65508,47.102994 26.822244,48.557593 27.603093,49.700756 C 28.383942,50.843919 29.678108,51.528708 31.0625,51.53125 L 36.875,51.53125 C 38.633954,51.529829 40.205585,50.432181 40.8125,48.78125 L 42.0625,45.34375 L 47.125,45.34375 L 48.46875,48.84375 C 49.092037,50.459405 50.643294,51.52667 52.375,51.53125 L 58.34375,51.53125 C 58.823338,51.528841 59.298968,51.444285 59.75,51.28125 C 60.191149,51.440811 60.655919,51.525315 61.125,51.53125 L 66.625,51.53125 C 67.602662,51.541184 68.553142,51.209622 69.3125,50.59375 C 70.063551,51.20279 71.001797,51.533935 71.96875,51.53125 L 91.125,51.53125 C 93.435127,51.525068 95.306318,49.653877 95.3125,47.34375 L 95.3125,42.75 C 95.306318,40.439873 93.435127,38.568682 91.125,38.5625 L 81.65625,38.5625 L 81.65625,20.375 C 81.650068,18.064873 79.778877,16.193682 77.46875,16.1875 L 71.96875,16.1875 C 71.045024,16.179206 70.144344,16.475771 69.40625,17.03125 C 68.640073,16.349246 67.650744,15.9713 66.625,15.96875 L 61.125,15.96875 C 58.814873,15.974932 56.943682,17.846123 56.9375,20.15625 L 56.9375,32.5 L 51.375,18.59375 C 50.731753,17.002658 49.18494,15.963199 47.46875,15.96875 L 41.65625,15.96875 C 39.932335,15.968298 38.383317,17.021631 37.75,18.625 L 31.65625,34.25 L 31.65625,31.1875 C 31.6577,30.274453 31.361488,29.385817 30.8125,28.65625 C 32.415869,28.022933 33.469202,26.473915 33.46875,24.75 L 33.46875,20.15625 C 33.462568,17.846123 31.591377,15.974932 29.28125,15.96875 L 10.625,15.96875 C 10.489663,15.962195 10.354087,15.962195 10.21875,15.96875 z"
         id="path3754"
         style="font-size:40px;font-style:normal;font-weight:normal;fill:#ff0000;fill-opacity:1;stroke:none;stroke-width:1px;stroke-linecap:butt;stroke-linejoin:miter;stroke-opacity:1;filter:url(#filter3764);font-family:Bitstream Vera Sans"
         inkscape:original="M 10.625 20.15625 L 10.625 47.34375 L 16.125 47.34375 L 16.125 35.78125 L 27.46875 35.78125 L 27.46875 31.1875 L 16.125 31.1875 L 16.125 24.75 L 29.28125 24.75 L 29.28125 20.15625 L 10.625 20.15625 z M 41.65625 20.15625 L 31.0625 47.34375 L 36.875 47.34375 L 39.125 41.15625 L 50 41.15625 L 52.375 47.34375 L 58.34375 47.34375 L 47.46875 20.15625 L 41.65625 20.15625 z M 61.125 20.15625 L 61.125 47.34375 L 66.625 47.34375 L 66.625 20.15625 L 61.125 20.15625 z M 71.96875 20.375 L 71.96875 47.34375 L 91.125 47.34375 L 91.125 42.75 L 77.46875 42.75 L 77.46875 20.375 L 71.96875 20.375 z M 44.5 26.5 L 48.25 36.59375 L 40.8125 36.59375 L 44.5 26.5 z "
         inkscape:radius="4.1983304"
         sodipodi:type="inkscape:offset" />
      <flowRoot
         xml:space="preserve"
         id="flowRoot3756"
         style="font-size:40px;font-style:normal;font-weight:normal;opacity:1;fill:#ffffff;fill-opacity:1;stroke:none;stroke-width:1px;stroke-linecap:butt;stroke-linejoin:miter;stroke-opacity:1;font-family:Bitstream Vera Sans"
         transform="translate(-2.8789062,41.344382)"><flowRegion
           id="flowRegion3758"><rect
             id="rect3760"
             width="95.827332"
             height="46.449909"
             x="2.1468444"
             y="15.590916"
             style="font-size:40px;font-weight:normal;fill:#ffffff" /></flowRegion><flowPara
           id="flowPara3762"
           style="font-size:38px;font-style:normal;font-variant:normal;font-weight:bold;font-stretch:normal;text-align:center;line-height:125%;writing-mode:lr-tb;text-anchor:middle;fill:#ffffff;font-family:Arial;-inkscape-font-specification:Arial Bold">FAIL</flowPara></flowRoot>    </g>
    <g
       transform="translate(0,100)"
       id="g3768">
      <path
         sodipodi:type="inkscape:offset"
         inkscape:radius="5.4375"
         inkscape:original="M 10.625 20.15625 L 10.625 47.34375 L 16.125 47.34375 L 16.125 35.78125 L 27.46875 35.78125 L 27.46875 31.1875 L 16.125 31.1875 L 16.125 24.75 L 29.28125 24.75 L 29.28125 20.15625 L 10.625 20.15625 z M 41.65625 20.15625 L 31.0625 47.34375 L 36.875 47.34375 L 39.125 41.15625 L 50 41.15625 L 52.375 47.34375 L 58.34375 47.34375 L 47.46875 20.15625 L 41.65625 20.15625 z M 61.125 20.15625 L 61.125 47.34375 L 66.625 47.34375 L 66.625 20.15625 L 61.125 20.15625 z M 71.96875 20.375 L 71.96875 47.34375 L 91.125 47.34375 L 91.125 42.75 L 77.46875 42.75 L 77.46875 20.375 L 71.96875 20.375 z M 44.5 26.5 L 48.25 36.59375 L 40.8125 36.59375 L 44.5 26.5 z "
         style="font-size:40px;font-style:normal;font-weight:normal;fill:#ff0000;fill-opacity:1;stroke:none;stroke-width:1px;stroke-linecap:butt;stroke-linejoin:miter;stroke-opacity:1;filter:url(#filter3764);font-family:Bitstream Vera Sans"
         id="path3770"
         d="M 10.625,14.71875 C 7.6220761,14.71905 5.1878003,17.153326 5.1875,20.15625 L 5.1875,47.34375 C 5.1878003,50.346674 7.6220761,52.78095 10.625,52.78125 L 16.125,52.78125 C 19.127924,52.78095 21.5622,50.346674 21.5625,47.34375 L 21.5625,41.21875 L 27.46875,41.21875 C 27.520831,41.219498 27.572919,41.219498 27.625,41.21875 L 26,45.375 C 25.35088,47.046887 25.567839,48.931319 26.579915,50.411949 C 27.591991,51.892578 29.269024,52.778986 31.0625,52.78125 L 36.875,52.78125 C 39.170628,52.785154 41.221448,51.347078 42,49.1875 L 42.9375,46.59375 L 46.28125,46.59375 L 47.3125,49.28125 C 48.113958,51.382474 50.12613,52.773605 52.375,52.78125 L 58.34375,52.78125 C 58.80821,52.777727 59.270305,52.714714 59.71875,52.59375 C 60.177301,52.717389 60.650074,52.780425 61.125,52.78125 L 66.625,52.78125 C 67.567999,52.778737 68.494138,52.531048 69.3125,52.0625 C 70.121654,52.525847 71.036356,52.773354 71.96875,52.78125 L 91.125,52.78125 C 94.127924,52.78095 96.5622,50.346674 96.5625,47.34375 L 96.5625,42.75 C 96.5622,39.747076 94.127924,37.3128 91.125,37.3125 L 82.90625,37.3125 L 82.90625,20.375 C 82.90595,17.372076 80.471674,14.9378 77.46875,14.9375 L 71.96875,14.9375 C 71.099951,14.932868 70.242688,15.136468 69.46875,15.53125 C 68.614099,15.0029 67.629776,14.721665 66.625,14.71875 L 61.125,14.71875 C 58.122076,14.71905 55.6878,17.153326 55.6875,20.15625 L 55.6875,26 L 52.53125,18.125 C 51.699743,16.06063 49.694277,14.711273 47.46875,14.71875 L 41.65625,14.71875 C 39.415213,14.721407 37.405302,16.098568 36.59375,18.1875 L 34.71875,23 L 34.71875,20.15625 C 34.71845,17.153326 32.284174,14.71905 29.28125,14.71875 L 10.625,14.71875 z"
         transform="translate(-2.8789062,41.344382)" />
      <flowRoot
         transform="translate(-2.8789062,41.344382)"
         style="font-size:40px;font-style:normal;font-weight:normal;opacity:1;fill:#ffffff;fill-opacity:1;stroke:none;stroke-width:1px;stroke-linecap:butt;stroke-linejoin:miter;stroke-opacity:1;font-family:Bitstream Vera Sans"
         id="flowRoot3772"
         xml:space="preserve"><flowRegion
           id="flowRegion3774"><rect
             style="font-size:40px;font-weight:normal;fill:#ffffff"
             y="15.590916"
             x="2.1468444"
             height="46.449909"
             width="95.827332"
             id="rect3776" /></flowRegion><flowPara
           style="font-size:38px;font-style:normal;font-variant:normal;font-weight:bold;font-stretch:normal;text-align:center;line-height:125%;writing-mode:lr-tb;text-anchor:middle;fill:#ffffff;font-family:Arial;-inkscape-font-specification:Arial Bold"
           id="flowPara3778">FAIL</flowPara></flowRoot>    </g>
    <g
       id="g3782"
       transform="translate(0,150)">
      <path
         transform="translate(-2.8789062,41.344382)"
         d="M 10.625,13.71875 C 7.0698142,13.719105 4.1878555,16.601064 4.1875,20.15625 L 4.1875,47.34375 C 4.1878555,50.898936 7.0698142,53.780895 10.625,53.78125 L 16.125,53.78125 C 19.680186,53.780895 22.562145,50.898936 22.5625,47.34375 L 22.5625,42.21875 L 26.15625,42.21875 L 25.0625,45 C 24.288105,46.98188 24.542948,49.218376 25.743362,50.975232 C 26.943776,52.732087 28.9347,53.782365 31.0625,53.78125 L 36.875,53.78125 C 39.589766,53.784457 42.014829,52.084414 42.9375,49.53125 L 43.65625,47.59375 L 45.59375,47.59375 L 46.375,49.65625 C 47.33075,52.138758 49.71487,53.777841 52.375,53.78125 L 58.34375,53.78125 C 58.816817,53.78099 59.288414,53.72859 59.75,53.625 C 60.201388,53.726333 60.662384,53.778719 61.125,53.78125 L 66.625,53.78125 C 67.55316,53.77937 68.469939,53.576826 69.3125,53.1875 C 70.145485,53.572454 71.051137,53.774894 71.96875,53.78125 L 91.125,53.78125 C 94.680186,53.780895 97.562145,50.898936 97.5625,47.34375 L 97.5625,42.75 C 97.562145,39.194814 94.680186,36.312855 91.125,36.3125 L 83.90625,36.3125 L 83.90625,20.375 C 83.905895,16.819814 81.023936,13.937855 77.46875,13.9375 L 71.96875,13.9375 C 71.133536,13.934162 70.305653,14.093371 69.53125,14.40625 C 68.629777,13.952458 67.634246,13.716956 66.625,13.71875 L 61.125,13.71875 C 57.569814,13.719105 54.687855,16.601064 54.6875,20.15625 L 54.6875,20.875 L 53.4375,17.75 C 52.455984,15.314937 50.094184,13.719795 47.46875,13.71875 L 41.65625,13.71875 C 39.003934,13.717154 36.622067,15.342282 35.65625,17.8125 L 35.46875,18.3125 C 34.651607,15.57964 32.133648,13.710247 29.28125,13.71875 L 10.625,13.71875 z"
         id="path3784"
         style="font-size:40px;font-style:normal;font-weight:normal;fill:#ff0000;fill-opacity:1;stroke:none;stroke-width:1px;stroke-linecap:butt;stroke-linejoin:miter;stroke-opacity:1;filter:url(#filter3794);font-family:Bitstream Vera Sans"
         inkscape:original="M 10.625 20.15625 L 10.625 47.34375 L 16.125 47.34375 L 16.125 35.78125 L 27.46875 35.78125 L 27.46875 31.1875 L 16.125 31.1875 L 16.125 24.75 L 29.28125 24.75 L 29.28125 20.15625 L 10.625 20.15625 z M 41.65625 20.15625 L 31.0625 47.34375 L 36.875 47.34375 L 39.125 41.15625 L 50 41.15625 L 52.375 47.34375 L 58.34375 47.34375 L 47.46875 20.15625 L 41.65625 20.15625 z M 61.125 20.15625 L 61.125 47.34375 L 66.625 47.34375 L 66.625 20.15625 L 61.125 20.15625 z M 71.96875 20.375 L 71.96875 47.34375 L 91.125 47.34375 L 91.125 42.75 L 77.46875 42.75 L 77.46875 20.375 L 71.96875 20.375 z M 44.5 26.5 L 48.25 36.59375 L 40.8125 36.59375 L 44.5 26.5 z "
         inkscape:radius="6.4375"
         sodipodi:type="inkscape:offset" />
      <flowRoot
         xml:space="preserve"
         id="flowRoot3786"
         style="font-size:40px;font-style:normal;font-weight:normal;opacity:1;fill:#ffffff;fill-opacity:1;stroke:none;stroke-width:1px;stroke-linecap:butt;stroke-linejoin:miter;stroke-opacity:1;font-family:Bitstream Vera Sans"
         transform="translate(-2.8789062,41.344382)"><flowRegion
           id="flowRegion3788"><rect
             id="rect3790"
             width="95.827332"
             height="46.449909"
             x="2.1468444"
             y="15.590916"
             style="font-size:40px;font-weight:normal;fill:#ffffff" /></flowRegion><flowPara
           id="flowPara3792"
           style="font-size:38px;font-style:normal;font-variant:normal;font-weight:bold;font-stretch:normal;text-align:center;line-height:125%;writing-mode:lr-tb;text-anchor:middle;fill:#ffffff;font-family:Arial;-inkscape-font-specification:Arial Bold">FAIL</flowPara></flowRoot>    </g>
    <g
       transform="translate(0,200)"
       id="g3798">
      <path
         sodipodi:type="inkscape:offset"
         inkscape:radius="5.1875"
         inkscape:original="M 10.625 20.15625 L 10.625 47.34375 L 16.125 47.34375 L 16.125 35.78125 L 27.46875 35.78125 L 27.46875 31.1875 L 16.125 31.1875 L 16.125 24.75 L 29.28125 24.75 L 29.28125 20.15625 L 10.625 20.15625 z M 41.65625 20.15625 L 31.0625 47.34375 L 36.875 47.34375 L 39.125 41.15625 L 50 41.15625 L 52.375 47.34375 L 58.34375 47.34375 L 47.46875 20.15625 L 41.65625 20.15625 z M 61.125 20.15625 L 61.125 47.34375 L 66.625 47.34375 L 66.625 20.15625 L 61.125 20.15625 z M 71.96875 20.375 L 71.96875 47.34375 L 91.125 47.34375 L 91.125 42.75 L 77.46875 42.75 L 77.46875 20.375 L 71.96875 20.375 z M 44.5 26.5 L 48.25 36.59375 L 40.8125 36.59375 L 44.5 26.5 z "
         style="font-size:40px;font-style:normal;font-weight:normal;fill:#ff0000;fill-opacity:1;stroke:none;stroke-width:1px;stroke-linecap:butt;stroke-linejoin:miter;stroke-opacity:1;filter:url(#filter3814);font-family:Bitstream Vera Sans"
         id="path3800"
         d="M 10.625,14.96875 C 7.7601415,14.969036 5.4377865,17.291392 5.4375,20.15625 L 5.4375,47.34375 C 5.4377865,50.208608 7.7601415,52.530964 10.625,52.53125 L 16.125,52.53125 C 18.989858,52.530964 21.312214,50.208608 21.3125,47.34375 L 21.3125,40.96875 L 27.46875,40.96875 C 27.635823,40.966391 27.802684,40.955962 27.96875,40.9375 L 26.21875,45.46875 C 25.599948,47.065714 25.809159,48.865177 26.777839,50.277575 C 27.746519,51.689972 29.34984,52.533298 31.0625,52.53125 L 36.875,52.53125 C 39.054095,52.532318 41.001614,51.171552 41.75,49.125 L 42.75,46.34375 L 46.4375,46.34375 L 47.53125,49.1875 C 48.296175,51.198726 50.223225,52.529012 52.375,52.53125 L 58.34375,52.53125 C 58.818874,52.533438 59.292047,52.470349 59.75,52.34375 C 60.197869,52.467544 60.660338,52.530608 61.125,52.53125 L 66.625,52.53125 C 67.572513,52.531356 68.501963,52.271975 69.3125,51.78125 C 70.113952,52.266512 71.031854,52.525684 71.96875,52.53125 L 91.125,52.53125 C 93.989858,52.530964 96.312214,50.208608 96.3125,47.34375 L 96.3125,42.75 C 96.312214,39.885142 93.989858,37.562786 91.125,37.5625 L 82.65625,37.5625 L 82.65625,20.375 C 82.655964,17.510142 80.333608,15.187786 77.46875,15.1875 L 71.96875,15.1875 C 71.096115,15.182261 70.236257,15.397226 69.46875,15.8125 C 68.623152,15.26048 67.634832,14.967242 66.625,14.96875 L 61.125,14.96875 C 58.260142,14.969036 55.937786,17.291392 55.9375,20.15625 L 55.9375,27.375 L 52.28125,18.21875 C 51.490427,16.254996 49.58576,14.968727 47.46875,14.96875 L 41.65625,14.96875 C 39.512324,14.966021 37.587549,16.282319 36.8125,18.28125 L 34.46875,24.28125 L 34.46875,20.15625 C 34.468464,17.291392 32.146108,14.969036 29.28125,14.96875 L 10.625,14.96875 z M 32.8125,28.5625 L 32.40625,29.59375 C 32.344311,29.402164 32.27127,29.214346 32.1875,29.03125 C 32.407319,28.890931 32.616244,28.734236 32.8125,28.5625 z"
         transform="translate(-2.8789062,41.344382)" />
      <flowRoot
         transform="translate(-2.8789062,41.344382)"
         style="font-size:40px;font-style:normal;font-weight:normal;opacity:1;fill:#ffffff;fill-opacity:1;stroke:none;stroke-width:1px;stroke-linecap:butt;stroke-linejoin:miter;stroke-opacity:1;font-family:Bitstream Vera Sans"
         id="flowRoot3802"
         xml:space="preserve"><flowRegion
           id="flowRegion3804"><rect
             style="font-size:40px;font-weight:normal;fill:#ffffff"
             y="15.590916"
             x="2.1468444"
             height="46.449909"
             width="95.827332"
             id="rect3806" /></flowRegion><flowPara
           style="font-size:38px;font-style:normal;font-variant:normal;font-weight:bold;font-stretch:normal;text-align:center;line-height:125%;writing-mode:lr-tb;text-anchor:middle;fill:#ffffff;font-family:Arial;-inkscape-font-specification:Arial Bold"
           id="flowPara3808">FAIL</flowPara></flowRoot>    </g>
    <g
       id="g3872"
       transform="translate(0,250)"
       style="opacity:0.8">
      <path
         transform="translate(-2.8789062,41.344382)"
         d="M 10.625,16.46875 C 8.5885343,16.468954 6.9377036,18.119784 6.9375,20.15625 L 6.9375,47.34375 C 6.9377036,49.380216 8.5885343,51.031046 10.625,51.03125 L 16.125,51.03125 C 18.161466,51.031046 19.812296,49.380216 19.8125,47.34375 L 19.8125,39.46875 L 27.46875,39.46875 C 29.505216,39.468546 31.156046,37.817716 31.15625,35.78125 L 31.15625,31.1875 C 31.153749,30.102579 30.673652,29.0738 29.84375,28.375 C 31.634514,28.098467 32.959086,26.561963 32.96875,24.75 L 32.96875,20.15625 C 32.968546,18.119784 31.317716,16.468954 29.28125,16.46875 L 10.625,16.46875 z M 41.65625,16.46875 C 40.137043,16.46739 38.772455,17.397791 38.21875,18.8125 L 27.625,46 C 27.18086,47.135488 27.326647,48.417105 28.014471,49.423828 C 28.702294,50.430552 29.843241,51.032246 31.0625,51.03125 L 36.875,51.03125 C 38.429396,51.030963 39.816733,50.056077 40.34375,48.59375 L 41.71875,44.84375 L 47.46875,44.84375 L 48.9375,48.65625 C 49.481116,50.08325 50.847965,51.027618 52.375,51.03125 L 58.34375,51.03125 C 58.826388,51.030423 59.30417,50.934866 59.75,50.75 C 60.186104,50.930902 60.652889,51.026381 61.125,51.03125 L 66.625,51.03125 C 67.641936,51.03286 68.614402,50.614473 69.3125,49.875 C 70.00313,50.606609 70.962682,51.024296 71.96875,51.03125 L 91.125,51.03125 C 93.161466,51.031046 94.812296,49.380216 94.8125,47.34375 L 94.8125,42.75 C 94.812296,40.713534 93.161466,39.062704 91.125,39.0625 L 81.15625,39.0625 L 81.15625,20.375 C 81.156046,18.338534 79.505216,16.687704 77.46875,16.6875 L 71.96875,16.6875 C 71.008856,16.694671 70.089584,17.075832 69.40625,17.75 C 68.708673,16.940014 67.693961,16.472562 66.625,16.46875 L 61.125,16.46875 C 59.088534,16.468954 57.437704,18.119784 57.4375,20.15625 L 57.4375,35.125 L 50.90625,18.78125 C 50.34257,17.378822 48.980205,16.462322 47.46875,16.46875 L 41.65625,16.46875 z"
         id="path3874"
         style="font-size:40px;font-style:normal;font-weight:normal;fill:#ff0000;fill-opacity:1;stroke:none;stroke-width:1px;stroke-linecap:butt;stroke-linejoin:miter;stroke-opacity:1;filter:url(#filter3884);font-family:Bitstream Vera Sans"
         inkscape:original="M 10.625 20.15625 L 10.625 47.34375 L 16.125 47.34375 L 16.125 35.78125 L 27.46875 35.78125 L 27.46875 31.1875 L 16.125 31.1875 L 16.125 24.75 L 29.28125 24.75 L 29.28125 20.15625 L 10.625 20.15625 z M 41.65625 20.15625 L 31.0625 47.34375 L 36.875 47.34375 L 39.125 41.15625 L 50 41.15625 L 52.375 47.34375 L 58.34375 47.34375 L 47.46875 20.15625 L 41.65625 20.15625 z M 61.125 20.15625 L 61.125 47.34375 L 66.625 47.34375 L 66.625 20.15625 L 61.125 20.15625 z M 71.96875 20.375 L 71.96875 47.34375 L 91.125 47.34375 L 91.125 42.75 L 77.46875 42.75 L 77.46875 20.375 L 71.96875 20.375 z M 44.5 26.5 L 48.25 36.59375 L 40.8125 36.59375 L 44.5 26.5 z "
         inkscape:radius="3.6875"
         sodipodi:type="inkscape:offset" />
      <flowRoot
         xml:space="preserve"
         id="flowRoot3876"
         style="font-size:40px;font-style:normal;font-weight:normal;opacity:1;fill:#ffffff;fill-opacity:1;stroke:none;stroke-width:1px;stroke-linecap:butt;stroke-linejoin:miter;stroke-opacity:1;font-family:Bitstream Vera Sans"
         transform="translate(-2.8789062,41.344382)"><flowRegion
           id="flowRegion3878"><rect
             id="rect3880"
             width="95.827332"
             height="46.449909"
             x="2.1468444"
             y="15.590916"
             style="font-size:40px;font-weight:normal;fill:#ffffff" /></flowRegion><flowPara
           id="flowPara3882"
           style="font-size:38px;font-style:normal;font-variant:normal;font-weight:bold;font-stretch:normal;text-align:center;line-height:125%;writing-mode:lr-tb;text-anchor:middle;fill:#ffffff;font-family:Arial;-inkscape-font-specification:Arial Bold">FAIL</flowPara></flowRoot>    </g>
    <g
       transform="translate(0,300)"
       id="g3888"
       style="opacity:0.6">
      <path
         sodipodi:type="inkscape:offset"
         inkscape:radius="2.9555976"
         inkscape:original="M 10.625 20.15625 L 10.625 47.34375 L 16.125 47.34375 L 16.125 35.78125 L 27.46875 35.78125 L 27.46875 31.1875 L 16.125 31.1875 L 16.125 24.75 L 29.28125 24.75 L 29.28125 20.15625 L 10.625 20.15625 z M 41.65625 20.15625 L 31.0625 47.34375 L 36.875 47.34375 L 39.125 41.15625 L 50 41.15625 L 52.375 47.34375 L 58.34375 47.34375 L 47.46875 20.15625 L 41.65625 20.15625 z M 61.125 20.15625 L 61.125 47.34375 L 66.625 47.34375 L 66.625 20.15625 L 61.125 20.15625 z M 71.96875 20.375 L 71.96875 47.34375 L 91.125 47.34375 L 91.125 42.75 L 77.46875 42.75 L 77.46875 20.375 L 71.96875 20.375 z M 44.5 26.5 L 48.25 36.59375 L 40.8125 36.59375 L 44.5 26.5 z "
         style="font-size:40px;font-style:normal;font-weight:normal;fill:#ff0000;fill-opacity:1;stroke:none;stroke-width:1px;stroke-linecap:butt;stroke-linejoin:miter;stroke-opacity:1;filter:url(#filter3924);font-family:Bitstream Vera Sans"
         id="path3890"
         d="M 10.625,17.1875 C 9.83659,17.184063 9.0794784,17.495738 8.521983,18.053233 C 7.9644876,18.610728 7.6528132,19.36784 7.65625,20.15625 L 7.65625,47.34375 C 7.6528132,48.13216 7.9644876,48.889272 8.521983,49.446767 C 9.0794784,50.004262 9.83659,50.315937 10.625,50.3125 L 16.125,50.3125 C 16.91341,50.315937 17.670522,50.004262 18.228017,49.446767 C 18.785512,48.889272 19.097187,48.13216 19.09375,47.34375 L 19.09375,38.75 L 27.46875,38.75 C 28.25716,38.753437 29.014272,38.441762 29.571767,37.884267 C 30.129262,37.326772 30.440937,36.56966 30.4375,35.78125 L 30.4375,31.1875 C 30.440937,30.39909 30.129262,29.641978 29.571767,29.084483 C 29.014272,28.526988 28.25716,28.215313 27.46875,28.21875 L 19.09375,28.21875 L 19.09375,27.71875 L 29.28125,27.71875 C 30.06966,27.722187 30.826772,27.410512 31.384267,26.853017 C 31.941762,26.295522 32.253437,25.53841 32.25,24.75 L 32.25,20.15625 C 32.253437,19.36784 31.941762,18.610728 31.384267,18.053233 C 30.826772,17.495738 30.06966,17.184063 29.28125,17.1875 L 10.625,17.1875 z M 41.65625,17.1875 C 40.433548,17.192986 39.340426,17.950719 38.90625,19.09375 L 28.3125,46.28125 C 27.957438,47.190349 28.074009,48.216114 28.624006,49.022359 C 29.174003,49.828605 30.086525,50.311396 31.0625,50.3125 L 36.875,50.3125 C 38.125126,50.31041 39.238762,49.522106 39.65625,48.34375 L 41.1875,44.125 L 47.96875,44.125 L 49.625,48.40625 C 50.059176,49.549281 51.152298,50.307014 52.375,50.3125 L 58.34375,50.3125 C 58.836428,50.306656 59.31983,50.177749 59.75,49.9375 C 60.170887,50.172778 60.642941,50.30152 61.125,50.3125 L 66.625,50.3125 C 67.768312,50.301531 68.802765,49.632179 69.28125,48.59375 C 69.764504,49.642391 70.814115,50.313654 71.96875,50.3125 L 91.125,50.3125 C 91.91341,50.315937 92.670522,50.004262 93.228017,49.446767 C 93.785512,48.889272 94.097187,48.13216 94.09375,47.34375 L 94.09375,42.75 C 94.097187,41.96159 93.785512,41.204478 93.228017,40.646983 C 92.670522,40.089488 91.91341,39.777813 91.125,39.78125 L 80.4375,39.78125 L 80.4375,20.375 C 80.440937,19.58659 80.129262,18.829478 79.571767,18.271983 C 79.014272,17.714488 78.25716,17.402813 77.46875,17.40625 L 71.96875,17.40625 C 70.864788,17.405627 69.852481,18.020242 69.34375,19 C 68.884148,17.904322 67.813166,17.190333 66.625,17.1875 L 61.125,17.1875 C 60.33659,17.184063 59.579478,17.495738 59.021983,18.053233 C 58.464488,18.610728 58.152813,19.36784 58.15625,20.15625 L 58.15625,38.90625 L 50.21875,19.0625 C 49.7745,17.931758 48.683631,17.187984 47.46875,17.1875 L 41.65625,17.1875 z"
         transform="translate(-2.8789062,41.344382)" />
      <flowRoot
         transform="translate(-2.8789062,41.344382)"
         style="font-size:40px;font-style:normal;font-weight:normal;opacity:1;fill:#ffffff;fill-opacity:1;stroke:none;stroke-width:1px;stroke-linecap:butt;stroke-linejoin:miter;stroke-opacity:1;font-family:Bitstream Vera Sans"
         id="flowRoot3892"
         xml:space="preserve"><flowRegion
           id="flowRegion3894"><rect
             style="font-size:40px;font-weight:normal;fill:#ffffff"
             y="15.590916"
             x="2.1468444"
             height="46.449909"
             width="95.827332"
             id="rect3896" /></flowRegion><flowPara
           style="font-size:38px;font-style:normal;font-variant:normal;font-weight:bold;font-stretch:normal;text-align:center;line-height:125%;writing-mode:lr-tb;text-anchor:middle;fill:#ffffff;font-family:Arial;-inkscape-font-specification:Arial Bold"
           id="flowPara3898">FAIL</flowPara></flowRoot>    </g>
    <g
       id="g3900"
       transform="translate(0,350)"
       style="opacity:0.4">
      <path
         transform="translate(-2.8789062,41.344382)"
         d="M 10.625,17.53125 C 9.9277863,17.527904 9.2581614,17.803391 8.7651513,18.296401 C 8.2721411,18.789411 7.996654,19.459036 8,20.15625 L 8,47.34375 C 7.996654,48.040964 8.2721411,48.710589 8.7651513,49.203599 C 9.2581614,49.696609 9.9277863,49.972096 10.625,49.96875 L 16.125,49.96875 C 16.822214,49.972096 17.491839,49.696609 17.984849,49.203599 C 18.477859,48.710589 18.753346,48.040964 18.75,47.34375 L 18.75,38.40625 L 27.46875,38.40625 C 28.165964,38.409596 28.835589,38.134109 29.328599,37.641099 C 29.821609,37.148089 30.097096,36.478464 30.09375,35.78125 L 30.09375,31.1875 C 30.097096,30.490286 29.821609,29.820661 29.328599,29.327651 C 28.835589,28.834641 28.165964,28.559154 27.46875,28.5625 L 18.75,28.5625 L 18.75,27.375 L 29.28125,27.375 C 29.978464,27.378346 30.648089,27.102859 31.141099,26.609849 C 31.634109,26.116839 31.909596,25.447214 31.90625,24.75 L 31.90625,20.15625 C 31.909596,19.459036 31.634109,18.789411 31.141099,18.296401 C 30.648089,17.803391 29.978464,17.527904 29.28125,17.53125 L 10.625,17.53125 z M 41.65625,17.53125 C 40.572357,17.53364 39.602517,18.205068 39.21875,19.21875 L 28.625,46.40625 C 28.310916,47.210838 28.414802,48.11866 28.90253,48.831493 C 29.390258,49.544326 30.198782,49.970027 31.0625,49.96875 L 36.875,49.96875 C 37.978289,49.97461 38.966321,49.286739 39.34375,48.25 L 40.96875,43.78125 L 48.21875,43.78125 L 49.9375,48.28125 C 50.321267,49.294932 51.291107,49.96636 52.375,49.96875 L 58.34375,49.96875 C 58.834067,49.954891 59.310577,49.803274 59.71875,49.53125 C 59.729167,49.531312 59.739583,49.531312 59.75,49.53125 C 60.158173,49.803274 60.634683,49.954891 61.125,49.96875 L 66.625,49.96875 C 67.322214,49.972096 67.991839,49.696609 68.484849,49.203599 C 68.977859,48.710589 69.253346,48.040964 69.25,47.34375 L 69.25,20.15625 C 69.253346,19.459036 68.977859,18.789411 68.484849,18.296401 C 67.991839,17.803391 67.322214,17.527904 66.625,17.53125 L 61.125,17.53125 C 60.427786,17.527904 59.758161,17.803391 59.265151,18.296401 C 58.772141,18.789411 58.496654,19.459036 58.5,20.15625 L 58.5,40.6875 L 49.90625,19.1875 C 49.512385,18.18611 48.54481,17.528655 47.46875,17.53125 L 41.65625,17.53125 z M 71.96875,17.75 C 71.271536,17.746654 70.601911,18.022141 70.108901,18.515151 C 69.615891,19.008161 69.340404,19.677786 69.34375,20.375 L 69.34375,47.34375 C 69.340404,48.040964 69.615891,48.710589 70.108901,49.203599 C 70.601911,49.696609 71.271536,49.972096 71.96875,49.96875 L 91.125,49.96875 C 91.822214,49.972096 92.491839,49.696609 92.984849,49.203599 C 93.477859,48.710589 93.753346,48.040964 93.75,47.34375 L 93.75,42.75 C 93.753346,42.052786 93.477859,41.383161 92.984849,40.890151 C 92.491839,40.397141 91.822214,40.121654 91.125,40.125 L 80.09375,40.125 L 80.09375,20.375 C 80.097096,19.677786 79.821609,19.008161 79.328599,18.515151 C 78.835589,18.022141 78.165964,17.746654 77.46875,17.75 L 71.96875,17.75 z"
         id="path3902"
         style="font-size:40px;font-style:normal;font-weight:normal;fill:#ff0000;fill-opacity:1;stroke:none;stroke-width:1px;stroke-linecap:butt;stroke-linejoin:miter;stroke-opacity:1;filter:url(#filter3928);font-family:Bitstream Vera Sans"
         inkscape:original="M 10.625 20.15625 L 10.625 47.34375 L 16.125 47.34375 L 16.125 35.78125 L 27.46875 35.78125 L 27.46875 31.1875 L 16.125 31.1875 L 16.125 24.75 L 29.28125 24.75 L 29.28125 20.15625 L 10.625 20.15625 z M 41.65625 20.15625 L 31.0625 47.34375 L 36.875 47.34375 L 39.125 41.15625 L 50 41.15625 L 52.375 47.34375 L 58.34375 47.34375 L 47.46875 20.15625 L 41.65625 20.15625 z M 61.125 20.15625 L 61.125 47.34375 L 66.625 47.34375 L 66.625 20.15625 L 61.125 20.15625 z M 71.96875 20.375 L 71.96875 47.34375 L 91.125 47.34375 L 91.125 42.75 L 77.46875 42.75 L 77.46875 20.375 L 71.96875 20.375 z M 44.5 26.5 L 48.25 36.59375 L 40.8125 36.59375 L 44.5 26.5 z "
         inkscape:radius="2.6122313"
         sodipodi:type="inkscape:offset" />
      <flowRoot
         xml:space="preserve"
         id="flowRoot3904"
         style="font-size:40px;font-style:normal;font-weight:normal;opacity:1;fill:#ffffff;fill-opacity:1;stroke:none;stroke-width:1px;stroke-linecap:butt;stroke-linejoin:miter;stroke-opacity:1;font-family:Bitstream Vera Sans"
         transform="translate(-2.8789062,41.344382)"><flowRegion
           id="flowRegion3906"><rect
             id="rect3908"
             width="95.827332"
             height="46.449909"
             x="2.1468444"
             y="15.590916"
             style="font-size:40px;font-weight:normal;fill:#ffffff" /></flowRegion><flowPara
           id="flowPara3910"
           style="font-size:38px;font-style:normal;font-variant:normal;font-weight:bold;font-stretch:normal;text-align:center;line-height:125%;writing-mode:lr-tb;text-anchor:middle;fill:#ffffff;font-family:Arial;-inkscape-font-specification:Arial Bold">FAIL</flowPara></flowRoot>    </g>
    <g
       transform="translate(0,400)"
       id="g3912"
       style="opacity:0.2">
      <path
         sodipodi:type="inkscape:offset"
         inkscape:radius="1.6905721"
         inkscape:original="M 10.625 20.15625 L 10.625 47.34375 L 16.125 47.34375 L 16.125 35.78125 L 27.46875 35.78125 L 27.46875 31.1875 L 16.125 31.1875 L 16.125 24.75 L 29.28125 24.75 L 29.28125 20.15625 L 10.625 20.15625 z M 41.65625 20.15625 L 31.0625 47.34375 L 36.875 47.34375 L 39.125 41.15625 L 50 41.15625 L 52.375 47.34375 L 58.34375 47.34375 L 47.46875 20.15625 L 41.65625 20.15625 z M 61.125 20.15625 L 61.125 47.34375 L 66.625 47.34375 L 66.625 20.15625 L 61.125 20.15625 z M 71.96875 20.375 L 71.96875 47.34375 L 91.125 47.34375 L 91.125 42.75 L 77.46875 42.75 L 77.46875 20.375 L 71.96875 20.375 z M 44.5 26.5 L 48.25 36.59375 L 40.8125 36.59375 L 44.5 26.5 z "
         style="font-size:40px;font-style:normal;font-weight:normal;fill:#ff0000;fill-opacity:1;stroke:none;stroke-width:1px;stroke-linecap:butt;stroke-linejoin:miter;stroke-opacity:1;filter:url(#filter3932);font-family:Bitstream Vera Sans"
         id="path3914"
         d="M 10.46875,18.46875 C 9.5990105,18.551159 8.9352793,19.282618 8.9375,20.15625 L 8.9375,47.34375 C 8.9392835,48.274991 9.6937592,49.029466 10.625,49.03125 L 16.125,49.03125 C 17.056241,49.029466 17.810716,48.274991 17.8125,47.34375 L 17.8125,37.46875 L 27.46875,37.46875 C 28.399991,37.466966 29.154466,36.712491 29.15625,35.78125 L 29.15625,31.1875 C 29.154466,30.256259 28.399991,29.501784 27.46875,29.5 L 17.8125,29.5 L 17.8125,26.4375 L 29.28125,26.4375 C 30.212491,26.435716 30.966966,25.681241 30.96875,24.75 L 30.96875,20.15625 C 30.966966,19.225009 30.212491,18.470534 29.28125,18.46875 L 10.625,18.46875 C 10.572944,18.466342 10.520806,18.466342 10.46875,18.46875 z M 41.5,18.46875 C 40.869122,18.53126 40.326229,18.941446 40.09375,19.53125 L 29.5,46.71875 C 29.294741,47.23777 29.358851,47.824648 29.671326,48.287111 C 29.983801,48.749574 30.504376,49.02803 31.0625,49.03125 L 36.875,49.03125 C 37.590838,49.031449 38.229222,48.580825 38.46875,47.90625 L 40.3125,42.84375 L 48.8125,42.84375 L 50.78125,47.9375 C 51.031168,48.599757 51.667173,49.036231 52.375,49.03125 L 58.34375,49.03125 C 58.891446,49.028519 59.403888,48.760651 59.71875,48.3125 C 60.039932,48.769739 60.56628,49.038761 61.125,49.03125 L 66.625,49.03125 C 67.556241,49.029466 68.310716,48.274991 68.3125,47.34375 L 68.3125,20.15625 C 68.310716,19.225009 67.556241,18.470534 66.625,18.46875 L 61.125,18.46875 C 60.193759,18.470534 59.439284,19.225009 59.4375,20.15625 L 59.4375,45.5625 L 49.03125,19.53125 C 48.775384,18.891939 48.157355,18.47168 47.46875,18.46875 L 41.65625,18.46875 C 41.604194,18.466342 41.552056,18.466342 41.5,18.46875 z M 71.8125,18.6875 C 70.94276,18.769909 70.279029,19.501368 70.28125,20.375 L 70.28125,47.34375 C 70.283034,48.274991 71.037509,49.029466 71.96875,49.03125 L 91.125,49.03125 C 92.056241,49.029466 92.810716,48.274991 92.8125,47.34375 L 92.8125,42.75 C 92.810716,41.818759 92.056241,41.064284 91.125,41.0625 L 79.15625,41.0625 L 79.15625,20.375 C 79.154466,19.443759 78.399991,18.689284 77.46875,18.6875 L 71.96875,18.6875 C 71.916694,18.685092 71.864556,18.685092 71.8125,18.6875 z M 44.5,31.40625 L 45.8125,34.90625 L 43.25,34.90625 L 44.5,31.40625 z"
         transform="translate(-2.8789062,41.344382)" />
      <flowRoot
         transform="translate(-2.8789062,41.344382)"
         style="font-size:40px;font-style:normal;font-weight:normal;opacity:1;fill:#ffffff;fill-opacity:1;stroke:none;stroke-width:1px;stroke-linecap:butt;stroke-linejoin:miter;stroke-opacity:1;font-family:Bitstream Vera Sans"
         id="flowRoot3916"
         xml:space="preserve"><flowRegion
           id="flowRegion3918"><rect
             style="font-size:40px;font-weight:normal;fill:#ffffff"
             y="15.590916"
             x="2.1468444"
             height="46.449909"
             width="95.827332"
             id="rect3920" /></flowRegion><flowPara
           style="font-size:38px;font-style:normal;font-variant:normal;font-weight:bold;font-stretch:normal;text-align:center;line-height:125%;writing-mode:lr-tb;text-anchor:middle;fill:#ffffff;font-family:Arial;-inkscape-font-specification:Arial Bold"
           id="flowPara3922">FAIL</flowPara></flowRoot>    </g>
  </g>
</svg>
