<?xml version="1.0" encoding="UTF-8" standalone="no"?>
<!-- Created with Inkscape (http://www.inkscape.org/) -->
<svg
   xmlns:dc="http://purl.org/dc/elements/1.1/"
   xmlns:cc="http://creativecommons.org/ns#"
   xmlns:rdf="http://www.w3.org/1999/02/22-rdf-syntax-ns#"
   xmlns:svg="http://www.w3.org/2000/svg"
   xmlns="http://www.w3.org/2000/svg"
   xmlns:sodipodi="http://sodipodi.sourceforge.net/DTD/sodipodi-0.dtd"
   xmlns:inkscape="http://www.inkscape.org/namespaces/inkscape"
   width="32"
   height="256"
   id="svg2"
   sodipodi:version="0.32"
   inkscape:version="0.46"
   version="1.0"
   sodipodi:docname="MPRocket.svg"
   inkscape:output_extension="org.inkscape.output.svg.inkscape"
   inkscape:export-filename="C:\Documents and Settings\Edward\My Documents\Visual Studio 2005\Projects\ShokoRocket++Git\src\ShokoRocket++\Sprites\MPRockets.png"
   inkscape:export-xdpi="90"
   inkscape:export-ydpi="90">
  <defs
     id="defs4">
    <linearGradient
       id="linearGradient3305">
      <stop
         style="stop-color:#000000;stop-opacity:0;"
         offset="0"
         id="stop3307" />
      <stop
         style="stop-color:#000000;stop-opacity:0.5840708;"
         offset="1"
         id="stop3309" />
    </linearGradient>
    <linearGradient
       id="linearGradient3291">
      <stop
         style="stop-color:#ff8a7e;stop-opacity:1;"
         offset="0"
         id="stop3293" />
      <stop
         style="stop-color:#ff0000;stop-opacity:0;"
         offset="1"
         id="stop3295" />
    </linearGradient>
    <linearGradient
       id="linearGradient3175">
      <stop
         id="stop3279"
         offset="0"
         style="stop-color:#000000;stop-opacity:1;" />
      <stop
         style="stop-color:#000000;stop-opacity:1;"
         offset="1"
         id="stop3283" />
    </linearGradient>
    <inkscape:perspective
       sodipodi:type="inkscape:persp3d"
       inkscape:vp_x="0 : 526.18109 : 1"
       inkscape:vp_y="6.1230318e-14 : 1000 : 0"
       inkscape:vp_z="744.09448 : 526.18109 : 1"
       inkscape:persp3d-origin="372.04724 : 350.78739 : 1"
       id="perspective10" />
  </defs>
  <sodipodi:namedview
     id="base"
     pagecolor="#ffffff"
     bordercolor="#666666"
     borderopacity="1.0"
     gridtolerance="10000"
     guidetolerance="10"
     objecttolerance="10"
     inkscape:pageopacity="0.0"
     inkscape:pageshadow="2"
     inkscape:zoom="5"
     inkscape:cx="13.169106"
     inkscape:cy="170.01668"
     inkscape:document-units="px"
     inkscape:current-layer="layer1"
     showgrid="true"
     inkscape:window-width="1180"
     inkscape:window-height="742"
     inkscape:window-x="96"
     inkscape:window-y="-4"
     inkscape:snap-nodes="false"
     inkscape:snap-bbox="true"
     inkscape:object-nodes="false">
    <inkscape:grid
       type="xygrid"
       id="grid2393"
       visible="true"
       enabled="true"
       spacingx="1px"
       spacingy="1px"
       dotted="false" />
  </sodipodi:namedview>
  <metadata
     id="metadata7">
    <rdf:RDF>
      <cc:Work
         rdf:about="">
        <dc:format>image/svg+xml</dc:format>
        <dc:type
           rdf:resource="http://purl.org/dc/dcmitype/StillImage" />
      </cc:Work>
    </rdf:RDF>
  </metadata>
  <g
     inkscape:label="Layer 1"
     inkscape:groupmode="layer"
     id="layer1">
    <path
       sodipodi:type="arc"
       style="opacity:1;fill:#ff0000;fill-opacity:1;fill-rule:nonzero;stroke:#000000;stroke-width:1;stroke-linecap:butt;stroke-linejoin:miter;marker:none;marker-start:none;marker-mid:none;marker-end:none;stroke-miterlimit:4;stroke-dasharray:none;stroke-dashoffset:0;stroke-opacity:1;visibility:visible;display:inline;overflow:visible;enable-background:accumulate"
       id="path3377"
       sodipodi:cx="8"
       sodipodi:cy="8"
       sodipodi:rx="0"
       sodipodi:ry="0"
       d="M 8,8 A 0,0 0 1 1 8,8 A 0,0 0 1 1 8,8 z" />
    <g
       id="g2905"
       transform="scale(2,2)">
      <path
         transform="matrix(0.7272727,0,0,1.6363637,9.0909091,-0.9090915)"
         d="M 0.5,8.5 A 2,1.5 0 1 1 -3.5,8.5 A 2,1.5 0 1 1 0.5,8.5 z"
         sodipodi:ry="1.5"
         sodipodi:rx="2"
         sodipodi:cy="8.5"
         sodipodi:cx="-1.5"
         id="path3391"
         style="opacity:1;fill:#ffffff;fill-opacity:1;fill-rule:nonzero;stroke:#000000;stroke-width:1;stroke-linecap:butt;stroke-linejoin:miter;marker:none;marker-start:none;marker-mid:none;marker-end:none;stroke-miterlimit:4;stroke-dasharray:none;stroke-dashoffset:0;stroke-opacity:1;visibility:visible;display:inline;overflow:visible;enable-background:accumulate"
         sodipodi:type="arc" />
      <path
         transform="matrix(0.7272727,0,0,1.6363637,9.0909091,-10.909091)"
         d="M 0.5,8.5 A 2,1.5 0 1 1 -3.5,8.5 A 2,1.5 0 1 1 0.5,8.5 z"
         sodipodi:ry="1.5"
         sodipodi:rx="2"
         sodipodi:cy="8.5"
         sodipodi:cx="-1.5"
         id="path3387"
         style="opacity:1;fill:#ffffff;fill-opacity:1;fill-rule:nonzero;stroke:#000000;stroke-width:1;stroke-linecap:butt;stroke-linejoin:miter;marker:none;marker-start:none;marker-mid:none;marker-end:none;stroke-miterlimit:4;stroke-dasharray:none;stroke-dashoffset:0;stroke-opacity:1;visibility:visible;display:inline;overflow:visible;enable-background:accumulate"
         sodipodi:type="arc" />
      <path
         transform="matrix(1.4570097,0,0,0.9426796,14.685515,-1.2776353e-2)"
         d="M 0.5,8.5 A 2,1.5 0 1 1 -3.5,8.5 A 2,1.5 0 1 1 0.5,8.5 z"
         sodipodi:ry="1.5"
         sodipodi:rx="2"
         sodipodi:cy="8.5"
         sodipodi:cx="-1.5"
         id="path3385"
         style="opacity:1;fill:#ffffff;fill-opacity:1;fill-rule:nonzero;stroke:#000000;stroke-width:1;stroke-linecap:butt;stroke-linejoin:miter;marker:none;marker-start:none;marker-mid:none;marker-end:none;stroke-miterlimit:4;stroke-dasharray:none;stroke-dashoffset:0;stroke-opacity:1;visibility:visible;display:inline;overflow:visible;enable-background:accumulate"
         sodipodi:type="arc" />
      <path
         transform="matrix(1.4570097,0,0,0.9426795,5.6855145,-1.277578e-2)"
         d="M 0.5,8.5 A 2,1.5 0 1 1 -3.5,8.5 A 2,1.5 0 1 1 0.5,8.5 z"
         sodipodi:ry="1.5"
         sodipodi:rx="2"
         sodipodi:cy="8.5"
         sodipodi:cx="-1.5"
         id="path3381"
         style="opacity:1;fill:#ffffff;fill-opacity:1;fill-rule:nonzero;stroke:#000000;stroke-width:1;stroke-linecap:butt;stroke-linejoin:miter;marker:none;marker-start:none;marker-mid:none;marker-end:none;stroke-miterlimit:4;stroke-dasharray:none;stroke-dashoffset:0;stroke-opacity:1;visibility:visible;display:inline;overflow:visible;enable-background:accumulate"
         sodipodi:type="arc" />
      <path
         transform="matrix(0.8314899,0,0,0.8250117,1.3344756,1.3871324)"
         d="M 14,8 A 6,6 0 1 1 2,8 A 6,6 0 1 1 14,8 z"
         sodipodi:ry="6"
         sodipodi:rx="6"
         sodipodi:cy="8"
         sodipodi:cx="8"
         id="path3367"
         style="opacity:1;fill:#0000ff;fill-opacity:1;fill-rule:nonzero;stroke:#000000;stroke-width:1;stroke-linecap:butt;stroke-linejoin:miter;marker:none;marker-start:none;marker-mid:none;marker-end:none;stroke-miterlimit:4;stroke-dasharray:none;stroke-dashoffset:0;stroke-opacity:1;visibility:visible;display:inline;overflow:visible;enable-background:accumulate"
         sodipodi:type="arc" />
      <path
         transform="translate(16.5,13.5)"
         d="M -8,-5.5 A 0.5,0.5 0 1 1 -9,-5.5 A 0.5,0.5 0 1 1 -8,-5.5 z"
         sodipodi:ry="0.5"
         sodipodi:rx="0.5"
         sodipodi:cy="-5.5"
         sodipodi:cx="-8.5"
         id="path3389"
         style="opacity:1;fill:#ffffff;fill-opacity:1;fill-rule:nonzero;stroke:#000000;stroke-width:1;stroke-linecap:butt;stroke-linejoin:miter;marker:none;marker-start:none;marker-mid:none;marker-end:none;stroke-miterlimit:4;stroke-dasharray:none;stroke-dashoffset:0;stroke-opacity:1;visibility:visible;display:inline;overflow:visible;enable-background:accumulate"
         sodipodi:type="arc" />
    </g>
    <g
       transform="matrix(2,0,0,2,0,32)"
       id="g2913">
      <path
         sodipodi:type="arc"
         style="opacity:1;fill:#ffffff;fill-opacity:1;fill-rule:nonzero;stroke:#000000;stroke-width:1;stroke-linecap:butt;stroke-linejoin:miter;marker:none;marker-start:none;marker-mid:none;marker-end:none;stroke-miterlimit:4;stroke-dasharray:none;stroke-dashoffset:0;stroke-opacity:1;visibility:visible;display:inline;overflow:visible;enable-background:accumulate"
         id="path2915"
         sodipodi:cx="-1.5"
         sodipodi:cy="8.5"
         sodipodi:rx="2"
         sodipodi:ry="1.5"
         d="M 0.5,8.5 A 2,1.5 0 1 1 -3.5,8.5 A 2,1.5 0 1 1 0.5,8.5 z"
         transform="matrix(0.7272727,0,0,1.6363637,9.0909091,-0.9090915)" />
      <path
         sodipodi:type="arc"
         style="opacity:1;fill:#ffffff;fill-opacity:1;fill-rule:nonzero;stroke:#000000;stroke-width:1;stroke-linecap:butt;stroke-linejoin:miter;marker:none;marker-start:none;marker-mid:none;marker-end:none;stroke-miterlimit:4;stroke-dasharray:none;stroke-dashoffset:0;stroke-opacity:1;visibility:visible;display:inline;overflow:visible;enable-background:accumulate"
         id="path2917"
         sodipodi:cx="-1.5"
         sodipodi:cy="8.5"
         sodipodi:rx="2"
         sodipodi:ry="1.5"
         d="M 0.5,8.5 A 2,1.5 0 1 1 -3.5,8.5 A 2,1.5 0 1 1 0.5,8.5 z"
         transform="matrix(0.7272727,0,0,1.6363637,9.0909091,-10.909091)" />
      <path
         sodipodi:type="arc"
         style="opacity:1;fill:#ffffff;fill-opacity:1;fill-rule:nonzero;stroke:#000000;stroke-width:1;stroke-linecap:butt;stroke-linejoin:miter;marker:none;marker-start:none;marker-mid:none;marker-end:none;stroke-miterlimit:4;stroke-dasharray:none;stroke-dashoffset:0;stroke-opacity:1;visibility:visible;display:inline;overflow:visible;enable-background:accumulate"
         id="path2919"
         sodipodi:cx="-1.5"
         sodipodi:cy="8.5"
         sodipodi:rx="2"
         sodipodi:ry="1.5"
         d="M 0.5,8.5 A 2,1.5 0 1 1 -3.5,8.5 A 2,1.5 0 1 1 0.5,8.5 z"
         transform="matrix(1.4570097,0,0,0.9426796,14.685515,-1.2776353e-2)" />
      <path
         sodipodi:type="arc"
         style="opacity:1;fill:#ffffff;fill-opacity:1;fill-rule:nonzero;stroke:#000000;stroke-width:1;stroke-linecap:butt;stroke-linejoin:miter;marker:none;marker-start:none;marker-mid:none;marker-end:none;stroke-miterlimit:4;stroke-dasharray:none;stroke-dashoffset:0;stroke-opacity:1;visibility:visible;display:inline;overflow:visible;enable-background:accumulate"
         id="path2921"
         sodipodi:cx="-1.5"
         sodipodi:cy="8.5"
         sodipodi:rx="2"
         sodipodi:ry="1.5"
         d="M 0.5,8.5 A 2,1.5 0 1 1 -3.5,8.5 A 2,1.5 0 1 1 0.5,8.5 z"
         transform="matrix(1.4570097,0,0,0.9426795,5.6855145,-1.277578e-2)" />
      <path
         sodipodi:type="arc"
         style="opacity:1;fill:#b10000;fill-opacity:1;fill-rule:nonzero;stroke:#000000;stroke-width:1;stroke-linecap:butt;stroke-linejoin:miter;marker:none;marker-start:none;marker-mid:none;marker-end:none;stroke-miterlimit:4;stroke-dasharray:none;stroke-dashoffset:0;stroke-opacity:1;visibility:visible;display:inline;overflow:visible;enable-background:accumulate"
         id="path2923"
         sodipodi:cx="8"
         sodipodi:cy="8"
         sodipodi:rx="6"
         sodipodi:ry="6"
         d="M 14,8 A 6,6 0 1 1 2,8 A 6,6 0 1 1 14,8 z"
         transform="matrix(0.8314899,0,0,0.8250117,1.3344756,1.3871324)" />
      <path
         sodipodi:type="arc"
         style="opacity:1;fill:#ffffff;fill-opacity:1;fill-rule:nonzero;stroke:#000000;stroke-width:1;stroke-linecap:butt;stroke-linejoin:miter;marker:none;marker-start:none;marker-mid:none;marker-end:none;stroke-miterlimit:4;stroke-dasharray:none;stroke-dashoffset:0;stroke-opacity:1;visibility:visible;display:inline;overflow:visible;enable-background:accumulate"
         id="path2925"
         sodipodi:cx="-8.5"
         sodipodi:cy="-5.5"
         sodipodi:rx="0.5"
         sodipodi:ry="0.5"
         d="M -8,-5.5 A 0.5,0.5 0 1 1 -9,-5.5 A 0.5,0.5 0 1 1 -8,-5.5 z"
         transform="translate(16.5,13.5)" />
    </g>
    <g
       id="g2927"
       transform="matrix(2,0,0,2,0,96)">
      <path
         transform="matrix(0.7272727,0,0,1.6363637,9.0909091,-0.9090915)"
         d="M 0.5,8.5 A 2,1.5 0 1 1 -3.5,8.5 A 2,1.5 0 1 1 0.5,8.5 z"
         sodipodi:ry="1.5"
         sodipodi:rx="2"
         sodipodi:cy="8.5"
         sodipodi:cx="-1.5"
         id="path2929"
         style="opacity:1;fill:#ffffff;fill-opacity:1;fill-rule:nonzero;stroke:#000000;stroke-width:1;stroke-linecap:butt;stroke-linejoin:miter;marker:none;marker-start:none;marker-mid:none;marker-end:none;stroke-miterlimit:4;stroke-dasharray:none;stroke-dashoffset:0;stroke-opacity:1;visibility:visible;display:inline;overflow:visible;enable-background:accumulate"
         sodipodi:type="arc" />
      <path
         transform="matrix(0.7272727,0,0,1.6363637,9.0909091,-10.909091)"
         d="M 0.5,8.5 A 2,1.5 0 1 1 -3.5,8.5 A 2,1.5 0 1 1 0.5,8.5 z"
         sodipodi:ry="1.5"
         sodipodi:rx="2"
         sodipodi:cy="8.5"
         sodipodi:cx="-1.5"
         id="path2931"
         style="opacity:1;fill:#ffffff;fill-opacity:1;fill-rule:nonzero;stroke:#000000;stroke-width:1;stroke-linecap:butt;stroke-linejoin:miter;marker:none;marker-start:none;marker-mid:none;marker-end:none;stroke-miterlimit:4;stroke-dasharray:none;stroke-dashoffset:0;stroke-opacity:1;visibility:visible;display:inline;overflow:visible;enable-background:accumulate"
         sodipodi:type="arc" />
      <path
         transform="matrix(1.4570097,0,0,0.9426796,14.685515,-1.2776353e-2)"
         d="M 0.5,8.5 A 2,1.5 0 1 1 -3.5,8.5 A 2,1.5 0 1 1 0.5,8.5 z"
         sodipodi:ry="1.5"
         sodipodi:rx="2"
         sodipodi:cy="8.5"
         sodipodi:cx="-1.5"
         id="path2933"
         style="opacity:1;fill:#ffffff;fill-opacity:1;fill-rule:nonzero;stroke:#000000;stroke-width:1;stroke-linecap:butt;stroke-linejoin:miter;marker:none;marker-start:none;marker-mid:none;marker-end:none;stroke-miterlimit:4;stroke-dasharray:none;stroke-dashoffset:0;stroke-opacity:1;visibility:visible;display:inline;overflow:visible;enable-background:accumulate"
         sodipodi:type="arc" />
      <path
         transform="matrix(1.4570097,0,0,0.9426795,5.6855145,-1.277578e-2)"
         d="M 0.5,8.5 A 2,1.5 0 1 1 -3.5,8.5 A 2,1.5 0 1 1 0.5,8.5 z"
         sodipodi:ry="1.5"
         sodipodi:rx="2"
         sodipodi:cy="8.5"
         sodipodi:cx="-1.5"
         id="path2935"
         style="opacity:1;fill:#ffffff;fill-opacity:1;fill-rule:nonzero;stroke:#000000;stroke-width:1;stroke-linecap:butt;stroke-linejoin:miter;marker:none;marker-start:none;marker-mid:none;marker-end:none;stroke-miterlimit:4;stroke-dasharray:none;stroke-dashoffset:0;stroke-opacity:1;visibility:visible;display:inline;overflow:visible;enable-background:accumulate"
         sodipodi:type="arc" />
      <path
         transform="matrix(0.8314899,0,0,0.8250117,1.3344756,1.3871324)"
         d="M 14,8 A 6,6 0 1 1 2,8 A 6,6 0 1 1 14,8 z"
         sodipodi:ry="6"
         sodipodi:rx="6"
         sodipodi:cy="8"
         sodipodi:cx="8"
         id="path2937"
         style="opacity:1;fill:#d0d400;fill-opacity:1;fill-rule:nonzero;stroke:#000000;stroke-width:1;stroke-linecap:butt;stroke-linejoin:miter;marker:none;marker-start:none;marker-mid:none;marker-end:none;stroke-miterlimit:4;stroke-dasharray:none;stroke-dashoffset:0;stroke-opacity:1;visibility:visible;display:inline;overflow:visible;enable-background:accumulate"
         sodipodi:type="arc" />
      <path
         transform="translate(16.5,13.5)"
         d="M -8,-5.5 A 0.5,0.5 0 1 1 -9,-5.5 A 0.5,0.5 0 1 1 -8,-5.5 z"
         sodipodi:ry="0.5"
         sodipodi:rx="0.5"
         sodipodi:cy="-5.5"
         sodipodi:cx="-8.5"
         id="path2939"
         style="opacity:1;fill:#ffffff;fill-opacity:1;fill-rule:nonzero;stroke:#000000;stroke-width:1;stroke-linecap:butt;stroke-linejoin:miter;marker:none;marker-start:none;marker-mid:none;marker-end:none;stroke-miterlimit:4;stroke-dasharray:none;stroke-dashoffset:0;stroke-opacity:1;visibility:visible;display:inline;overflow:visible;enable-background:accumulate"
         sodipodi:type="arc" />
    </g>
    <g
       transform="matrix(2,0,0,2,0,128)"
       id="g2941">
      <path
         sodipodi:type="arc"
         style="opacity:1;fill:#ffffff;fill-opacity:1;fill-rule:nonzero;stroke:#000000;stroke-width:1;stroke-linecap:butt;stroke-linejoin:miter;marker:none;marker-start:none;marker-mid:none;marker-end:none;stroke-miterlimit:4;stroke-dasharray:none;stroke-dashoffset:0;stroke-opacity:1;visibility:visible;display:inline;overflow:visible;enable-background:accumulate"
         id="path2943"
         sodipodi:cx="-1.5"
         sodipodi:cy="8.5"
         sodipodi:rx="2"
         sodipodi:ry="1.5"
         d="M 0.5,8.5 A 2,1.5 0 1 1 -3.5,8.5 A 2,1.5 0 1 1 0.5,8.5 z"
         transform="matrix(0.7272727,0,0,1.6363637,9.0909091,-0.9090915)" />
      <path
         sodipodi:type="arc"
         style="opacity:1;fill:#ffffff;fill-opacity:1;fill-rule:nonzero;stroke:#000000;stroke-width:1;stroke-linecap:butt;stroke-linejoin:miter;marker:none;marker-start:none;marker-mid:none;marker-end:none;stroke-miterlimit:4;stroke-dasharray:none;stroke-dashoffset:0;stroke-opacity:1;visibility:visible;display:inline;overflow:visible;enable-background:accumulate"
         id="path2945"
         sodipodi:cx="-1.5"
         sodipodi:cy="8.5"
         sodipodi:rx="2"
         sodipodi:ry="1.5"
         d="M 0.5,8.5 A 2,1.5 0 1 1 -3.5,8.5 A 2,1.5 0 1 1 0.5,8.5 z"
         transform="matrix(0.7272727,0,0,1.6363637,9.0909091,-10.909091)" />
      <path
         sodipodi:type="arc"
         style="opacity:1;fill:#ffffff;fill-opacity:1;fill-rule:nonzero;stroke:#000000;stroke-width:1;stroke-linecap:butt;stroke-linejoin:miter;marker:none;marker-start:none;marker-mid:none;marker-end:none;stroke-miterlimit:4;stroke-dasharray:none;stroke-dashoffset:0;stroke-opacity:1;visibility:visible;display:inline;overflow:visible;enable-background:accumulate"
         id="path2947"
         sodipodi:cx="-1.5"
         sodipodi:cy="8.5"
         sodipodi:rx="2"
         sodipodi:ry="1.5"
         d="M 0.5,8.5 A 2,1.5 0 1 1 -3.5,8.5 A 2,1.5 0 1 1 0.5,8.5 z"
         transform="matrix(1.4570097,0,0,0.9426796,14.685515,-1.2776353e-2)" />
      <path
         sodipodi:type="arc"
         style="opacity:1;fill:#ffffff;fill-opacity:1;fill-rule:nonzero;stroke:#000000;stroke-width:1;stroke-linecap:butt;stroke-linejoin:miter;marker:none;marker-start:none;marker-mid:none;marker-end:none;stroke-miterlimit:4;stroke-dasharray:none;stroke-dashoffset:0;stroke-opacity:1;visibility:visible;display:inline;overflow:visible;enable-background:accumulate"
         id="path2949"
         sodipodi:cx="-1.5"
         sodipodi:cy="8.5"
         sodipodi:rx="2"
         sodipodi:ry="1.5"
         d="M 0.5,8.5 A 2,1.5 0 1 1 -3.5,8.5 A 2,1.5 0 1 1 0.5,8.5 z"
         transform="matrix(1.4570097,0,0,0.9426795,5.6855145,-1.277578e-2)" />
      <path
         sodipodi:type="arc"
         style="opacity:1;fill:#ff7300;fill-opacity:1;fill-rule:nonzero;stroke:#000000;stroke-width:1;stroke-linecap:butt;stroke-linejoin:miter;marker:none;marker-start:none;marker-mid:none;marker-end:none;stroke-miterlimit:4;stroke-dasharray:none;stroke-dashoffset:0;stroke-opacity:1;visibility:visible;display:inline;overflow:visible;enable-background:accumulate"
         id="path2951"
         sodipodi:cx="8"
         sodipodi:cy="8"
         sodipodi:rx="6"
         sodipodi:ry="6"
         d="M 14,8 A 6,6 0 1 1 2,8 A 6,6 0 1 1 14,8 z"
         transform="matrix(0.8314899,0,0,0.8250117,1.3344756,1.3871324)" />
      <path
         sodipodi:type="arc"
         style="opacity:1;fill:#ffffff;fill-opacity:1;fill-rule:nonzero;stroke:#000000;stroke-width:1;stroke-linecap:butt;stroke-linejoin:miter;marker:none;marker-start:none;marker-mid:none;marker-end:none;stroke-miterlimit:4;stroke-dasharray:none;stroke-dashoffset:0;stroke-opacity:1;visibility:visible;display:inline;overflow:visible;enable-background:accumulate"
         id="path2953"
         sodipodi:cx="-8.5"
         sodipodi:cy="-5.5"
         sodipodi:rx="0.5"
         sodipodi:ry="0.5"
         d="M -8,-5.5 A 0.5,0.5 0 1 1 -9,-5.5 A 0.5,0.5 0 1 1 -8,-5.5 z"
         transform="translate(16.5,13.5)" />
    </g>
    <g
       id="g2955"
       transform="matrix(2,0,0,2,0,160)">
      <path
         transform="matrix(0.7272727,0,0,1.6363637,9.0909091,-0.9090915)"
         d="M 0.5,8.5 A 2,1.5 0 1 1 -3.5,8.5 A 2,1.5 0 1 1 0.5,8.5 z"
         sodipodi:ry="1.5"
         sodipodi:rx="2"
         sodipodi:cy="8.5"
         sodipodi:cx="-1.5"
         id="path2957"
         style="opacity:1;fill:#ffffff;fill-opacity:1;fill-rule:nonzero;stroke:#000000;stroke-width:1;stroke-linecap:butt;stroke-linejoin:miter;marker:none;marker-start:none;marker-mid:none;marker-end:none;stroke-miterlimit:4;stroke-dasharray:none;stroke-dashoffset:0;stroke-opacity:1;visibility:visible;display:inline;overflow:visible;enable-background:accumulate"
         sodipodi:type="arc" />
      <path
         transform="matrix(0.7272727,0,0,1.6363637,9.0909091,-10.909091)"
         d="M 0.5,8.5 A 2,1.5 0 1 1 -3.5,8.5 A 2,1.5 0 1 1 0.5,8.5 z"
         sodipodi:ry="1.5"
         sodipodi:rx="2"
         sodipodi:cy="8.5"
         sodipodi:cx="-1.5"
         id="path2959"
         style="opacity:1;fill:#ffffff;fill-opacity:1;fill-rule:nonzero;stroke:#000000;stroke-width:1;stroke-linecap:butt;stroke-linejoin:miter;marker:none;marker-start:none;marker-mid:none;marker-end:none;stroke-miterlimit:4;stroke-dasharray:none;stroke-dashoffset:0;stroke-opacity:1;visibility:visible;display:inline;overflow:visible;enable-background:accumulate"
         sodipodi:type="arc" />
      <path
         transform="matrix(1.4570097,0,0,0.9426796,14.685515,-1.2776353e-2)"
         d="M 0.5,8.5 A 2,1.5 0 1 1 -3.5,8.5 A 2,1.5 0 1 1 0.5,8.5 z"
         sodipodi:ry="1.5"
         sodipodi:rx="2"
         sodipodi:cy="8.5"
         sodipodi:cx="-1.5"
         id="path2961"
         style="opacity:1;fill:#ffffff;fill-opacity:1;fill-rule:nonzero;stroke:#000000;stroke-width:1;stroke-linecap:butt;stroke-linejoin:miter;marker:none;marker-start:none;marker-mid:none;marker-end:none;stroke-miterlimit:4;stroke-dasharray:none;stroke-dashoffset:0;stroke-opacity:1;visibility:visible;display:inline;overflow:visible;enable-background:accumulate"
         sodipodi:type="arc" />
      <path
         transform="matrix(1.4570097,0,0,0.9426795,5.6855145,-1.277578e-2)"
         d="M 0.5,8.5 A 2,1.5 0 1 1 -3.5,8.5 A 2,1.5 0 1 1 0.5,8.5 z"
         sodipodi:ry="1.5"
         sodipodi:rx="2"
         sodipodi:cy="8.5"
         sodipodi:cx="-1.5"
         id="path2963"
         style="opacity:1;fill:#ffffff;fill-opacity:1;fill-rule:nonzero;stroke:#000000;stroke-width:1;stroke-linecap:butt;stroke-linejoin:miter;marker:none;marker-start:none;marker-mid:none;marker-end:none;stroke-miterlimit:4;stroke-dasharray:none;stroke-dashoffset:0;stroke-opacity:1;visibility:visible;display:inline;overflow:visible;enable-background:accumulate"
         sodipodi:type="arc" />
      <path
         transform="matrix(0.8314899,0,0,0.8250117,1.3344756,1.3871324)"
         d="M 14,8 A 6,6 0 1 1 2,8 A 6,6 0 1 1 14,8 z"
         sodipodi:ry="6"
         sodipodi:rx="6"
         sodipodi:cy="8"
         sodipodi:cx="8"
         id="path2965"
         style="opacity:1;fill:#d0d4ff;fill-opacity:1;fill-rule:nonzero;stroke:#000000;stroke-width:1;stroke-linecap:butt;stroke-linejoin:miter;marker:none;marker-start:none;marker-mid:none;marker-end:none;stroke-miterlimit:4;stroke-dasharray:none;stroke-dashoffset:0;stroke-opacity:1;visibility:visible;display:inline;overflow:visible;enable-background:accumulate"
         sodipodi:type="arc" />
      <path
         transform="translate(16.5,13.5)"
         d="M -8,-5.5 A 0.5,0.5 0 1 1 -9,-5.5 A 0.5,0.5 0 1 1 -8,-5.5 z"
         sodipodi:ry="0.5"
         sodipodi:rx="0.5"
         sodipodi:cy="-5.5"
         sodipodi:cx="-8.5"
         id="path2967"
         style="opacity:1;fill:#ffffff;fill-opacity:1;fill-rule:nonzero;stroke:#000000;stroke-width:1;stroke-linecap:butt;stroke-linejoin:miter;marker:none;marker-start:none;marker-mid:none;marker-end:none;stroke-miterlimit:4;stroke-dasharray:none;stroke-dashoffset:0;stroke-opacity:1;visibility:visible;display:inline;overflow:visible;enable-background:accumulate"
         sodipodi:type="arc" />
    </g>
    <g
       transform="matrix(2,0,0,2,0,192)"
       id="g2969">
      <path
         sodipodi:type="arc"
         style="opacity:1;fill:#ffffff;fill-opacity:1;fill-rule:nonzero;stroke:#000000;stroke-width:1;stroke-linecap:butt;stroke-linejoin:miter;marker:none;marker-start:none;marker-mid:none;marker-end:none;stroke-miterlimit:4;stroke-dasharray:none;stroke-dashoffset:0;stroke-opacity:1;visibility:visible;display:inline;overflow:visible;enable-background:accumulate"
         id="path2971"
         sodipodi:cx="-1.5"
         sodipodi:cy="8.5"
         sodipodi:rx="2"
         sodipodi:ry="1.5"
         d="M 0.5,8.5 A 2,1.5 0 1 1 -3.5,8.5 A 2,1.5 0 1 1 0.5,8.5 z"
         transform="matrix(0.7272727,0,0,1.6363637,9.0909091,-0.9090915)" />
      <path
         sodipodi:type="arc"
         style="opacity:1;fill:#ffffff;fill-opacity:1;fill-rule:nonzero;stroke:#000000;stroke-width:1;stroke-linecap:butt;stroke-linejoin:miter;marker:none;marker-start:none;marker-mid:none;marker-end:none;stroke-miterlimit:4;stroke-dasharray:none;stroke-dashoffset:0;stroke-opacity:1;visibility:visible;display:inline;overflow:visible;enable-background:accumulate"
         id="path2973"
         sodipodi:cx="-1.5"
         sodipodi:cy="8.5"
         sodipodi:rx="2"
         sodipodi:ry="1.5"
         d="M 0.5,8.5 A 2,1.5 0 1 1 -3.5,8.5 A 2,1.5 0 1 1 0.5,8.5 z"
         transform="matrix(0.7272727,0,0,1.6363637,9.0909091,-10.909091)" />
      <path
         sodipodi:type="arc"
         style="opacity:1;fill:#ffffff;fill-opacity:1;fill-rule:nonzero;stroke:#000000;stroke-width:1;stroke-linecap:butt;stroke-linejoin:miter;marker:none;marker-start:none;marker-mid:none;marker-end:none;stroke-miterlimit:4;stroke-dasharray:none;stroke-dashoffset:0;stroke-opacity:1;visibility:visible;display:inline;overflow:visible;enable-background:accumulate"
         id="path2975"
         sodipodi:cx="-1.5"
         sodipodi:cy="8.5"
         sodipodi:rx="2"
         sodipodi:ry="1.5"
         d="M 0.5,8.5 A 2,1.5 0 1 1 -3.5,8.5 A 2,1.5 0 1 1 0.5,8.5 z"
         transform="matrix(1.4570097,0,0,0.9426796,14.685515,-1.2776353e-2)" />
      <path
         sodipodi:type="arc"
         style="opacity:1;fill:#ffffff;fill-opacity:1;fill-rule:nonzero;stroke:#000000;stroke-width:1;stroke-linecap:butt;stroke-linejoin:miter;marker:none;marker-start:none;marker-mid:none;marker-end:none;stroke-miterlimit:4;stroke-dasharray:none;stroke-dashoffset:0;stroke-opacity:1;visibility:visible;display:inline;overflow:visible;enable-background:accumulate"
         id="path2977"
         sodipodi:cx="-1.5"
         sodipodi:cy="8.5"
         sodipodi:rx="2"
         sodipodi:ry="1.5"
         d="M 0.5,8.5 A 2,1.5 0 1 1 -3.5,8.5 A 2,1.5 0 1 1 0.5,8.5 z"
         transform="matrix(1.4570097,0,0,0.9426795,5.6855145,-1.277578e-2)" />
      <path
         sodipodi:type="arc"
         style="opacity:1;fill:#ff8cff;fill-opacity:1;fill-rule:nonzero;stroke:#000000;stroke-width:1;stroke-linecap:butt;stroke-linejoin:miter;marker:none;marker-start:none;marker-mid:none;marker-end:none;stroke-miterlimit:4;stroke-dasharray:none;stroke-dashoffset:0;stroke-opacity:1;visibility:visible;display:inline;overflow:visible;enable-background:accumulate"
         id="path2979"
         sodipodi:cx="8"
         sodipodi:cy="8"
         sodipodi:rx="6"
         sodipodi:ry="6"
         d="M 14,8 A 6,6 0 1 1 2,8 A 6,6 0 1 1 14,8 z"
         transform="matrix(0.8314899,0,0,0.8250117,1.3344756,1.3871324)" />
      <path
         sodipodi:type="arc"
         style="opacity:1;fill:#ffffff;fill-opacity:1;fill-rule:nonzero;stroke:#000000;stroke-width:1;stroke-linecap:butt;stroke-linejoin:miter;marker:none;marker-start:none;marker-mid:none;marker-end:none;stroke-miterlimit:4;stroke-dasharray:none;stroke-dashoffset:0;stroke-opacity:1;visibility:visible;display:inline;overflow:visible;enable-background:accumulate"
         id="path2981"
         sodipodi:cx="-8.5"
         sodipodi:cy="-5.5"
         sodipodi:rx="0.5"
         sodipodi:ry="0.5"
         d="M -8,-5.5 A 0.5,0.5 0 1 1 -9,-5.5 A 0.5,0.5 0 1 1 -8,-5.5 z"
         transform="translate(16.5,13.5)" />
    </g>
    <g
       id="g2983"
       transform="matrix(2,0,0,2,0,224)">
      <path
         transform="matrix(0.7272727,0,0,1.6363637,9.0909091,-0.9090915)"
         d="M 0.5,8.5 A 2,1.5 0 1 1 -3.5,8.5 A 2,1.5 0 1 1 0.5,8.5 z"
         sodipodi:ry="1.5"
         sodipodi:rx="2"
         sodipodi:cy="8.5"
         sodipodi:cx="-1.5"
         id="path2985"
         style="opacity:1;fill:#ffffff;fill-opacity:1;fill-rule:nonzero;stroke:#000000;stroke-width:1;stroke-linecap:butt;stroke-linejoin:miter;marker:none;marker-start:none;marker-mid:none;marker-end:none;stroke-miterlimit:4;stroke-dasharray:none;stroke-dashoffset:0;stroke-opacity:1;visibility:visible;display:inline;overflow:visible;enable-background:accumulate"
         sodipodi:type="arc" />
      <path
         transform="matrix(0.7272727,0,0,1.6363637,9.0909091,-10.909091)"
         d="M 0.5,8.5 A 2,1.5 0 1 1 -3.5,8.5 A 2,1.5 0 1 1 0.5,8.5 z"
         sodipodi:ry="1.5"
         sodipodi:rx="2"
         sodipodi:cy="8.5"
         sodipodi:cx="-1.5"
         id="path2987"
         style="opacity:1;fill:#ffffff;fill-opacity:1;fill-rule:nonzero;stroke:#000000;stroke-width:1;stroke-linecap:butt;stroke-linejoin:miter;marker:none;marker-start:none;marker-mid:none;marker-end:none;stroke-miterlimit:4;stroke-dasharray:none;stroke-dashoffset:0;stroke-opacity:1;visibility:visible;display:inline;overflow:visible;enable-background:accumulate"
         sodipodi:type="arc" />
      <path
         transform="matrix(1.4570097,0,0,0.9426796,14.685515,-1.2776353e-2)"
         d="M 0.5,8.5 A 2,1.5 0 1 1 -3.5,8.5 A 2,1.5 0 1 1 0.5,8.5 z"
         sodipodi:ry="1.5"
         sodipodi:rx="2"
         sodipodi:cy="8.5"
         sodipodi:cx="-1.5"
         id="path2989"
         style="opacity:1;fill:#ffffff;fill-opacity:1;fill-rule:nonzero;stroke:#000000;stroke-width:1;stroke-linecap:butt;stroke-linejoin:miter;marker:none;marker-start:none;marker-mid:none;marker-end:none;stroke-miterlimit:4;stroke-dasharray:none;stroke-dashoffset:0;stroke-opacity:1;visibility:visible;display:inline;overflow:visible;enable-background:accumulate"
         sodipodi:type="arc" />
      <path
         transform="matrix(1.4570097,0,0,0.9426795,5.6855145,-1.277578e-2)"
         d="M 0.5,8.5 A 2,1.5 0 1 1 -3.5,8.5 A 2,1.5 0 1 1 0.5,8.5 z"
         sodipodi:ry="1.5"
         sodipodi:rx="2"
         sodipodi:cy="8.5"
         sodipodi:cx="-1.5"
         id="path2991"
         style="opacity:1;fill:#ffffff;fill-opacity:1;fill-rule:nonzero;stroke:#000000;stroke-width:1;stroke-linecap:butt;stroke-linejoin:miter;marker:none;marker-start:none;marker-mid:none;marker-end:none;stroke-miterlimit:4;stroke-dasharray:none;stroke-dashoffset:0;stroke-opacity:1;visibility:visible;display:inline;overflow:visible;enable-background:accumulate"
         sodipodi:type="arc" />
      <path
         transform="matrix(0.8314899,0,0,0.8250117,1.3344756,1.3871324)"
         d="M 14,8 A 6,6 0 1 1 2,8 A 6,6 0 1 1 14,8 z"
         sodipodi:ry="6"
         sodipodi:rx="6"
         sodipodi:cy="8"
         sodipodi:cx="8"
         id="path2993"
         style="opacity:1;fill:#3c3c3c;fill-opacity:1;fill-rule:nonzero;stroke:#000000;stroke-width:1;stroke-linecap:butt;stroke-linejoin:miter;marker:none;marker-start:none;marker-mid:none;marker-end:none;stroke-miterlimit:4;stroke-dasharray:none;stroke-dashoffset:0;stroke-opacity:1;visibility:visible;display:inline;overflow:visible;enable-background:accumulate"
         sodipodi:type="arc" />
      <path
         transform="translate(16.5,13.5)"
         d="M -8,-5.5 A 0.5,0.5 0 1 1 -9,-5.5 A 0.5,0.5 0 1 1 -8,-5.5 z"
         sodipodi:ry="0.5"
         sodipodi:rx="0.5"
         sodipodi:cy="-5.5"
         sodipodi:cx="-8.5"
         id="path2995"
         style="opacity:1;fill:#ffffff;fill-opacity:1;fill-rule:nonzero;stroke:#000000;stroke-width:1;stroke-linecap:butt;stroke-linejoin:miter;marker:none;marker-start:none;marker-mid:none;marker-end:none;stroke-miterlimit:4;stroke-dasharray:none;stroke-dashoffset:0;stroke-opacity:1;visibility:visible;display:inline;overflow:visible;enable-background:accumulate"
         sodipodi:type="arc" />
    </g>
    <g
       id="g4290"
       transform="matrix(2,0,0,2,0,64)">
      <path
         transform="matrix(0.7272727,0,0,1.6363637,9.0909091,-0.9090915)"
         d="M 0.5,8.5 A 2,1.5 0 1 1 -3.5,8.5 A 2,1.5 0 1 1 0.5,8.5 z"
         sodipodi:ry="1.5"
         sodipodi:rx="2"
         sodipodi:cy="8.5"
         sodipodi:cx="-1.5"
         id="path4292"
         style="opacity:1;fill:#ffffff;fill-opacity:1;fill-rule:nonzero;stroke:#000000;stroke-width:1;stroke-linecap:butt;stroke-linejoin:miter;marker:none;marker-start:none;marker-mid:none;marker-end:none;stroke-miterlimit:4;stroke-dasharray:none;stroke-dashoffset:0;stroke-opacity:1;visibility:visible;display:inline;overflow:visible;enable-background:accumulate"
         sodipodi:type="arc" />
      <path
         transform="matrix(0.7272727,0,0,1.6363637,9.0909091,-10.909091)"
         d="M 0.5,8.5 A 2,1.5 0 1 1 -3.5,8.5 A 2,1.5 0 1 1 0.5,8.5 z"
         sodipodi:ry="1.5"
         sodipodi:rx="2"
         sodipodi:cy="8.5"
         sodipodi:cx="-1.5"
         id="path4294"
         style="opacity:1;fill:#ffffff;fill-opacity:1;fill-rule:nonzero;stroke:#000000;stroke-width:1;stroke-linecap:butt;stroke-linejoin:miter;marker:none;marker-start:none;marker-mid:none;marker-end:none;stroke-miterlimit:4;stroke-dasharray:none;stroke-dashoffset:0;stroke-opacity:1;visibility:visible;display:inline;overflow:visible;enable-background:accumulate"
         sodipodi:type="arc" />
      <path
         transform="matrix(1.4570097,0,0,0.9426796,14.685515,-1.2776353e-2)"
         d="M 0.5,8.5 A 2,1.5 0 1 1 -3.5,8.5 A 2,1.5 0 1 1 0.5,8.5 z"
         sodipodi:ry="1.5"
         sodipodi:rx="2"
         sodipodi:cy="8.5"
         sodipodi:cx="-1.5"
         id="path4296"
         style="opacity:1;fill:#ffffff;fill-opacity:1;fill-rule:nonzero;stroke:#000000;stroke-width:1;stroke-linecap:butt;stroke-linejoin:miter;marker:none;marker-start:none;marker-mid:none;marker-end:none;stroke-miterlimit:4;stroke-dasharray:none;stroke-dashoffset:0;stroke-opacity:1;visibility:visible;display:inline;overflow:visible;enable-background:accumulate"
         sodipodi:type="arc" />
      <path
         transform="matrix(1.4570097,0,0,0.9426795,5.6855145,-1.277578e-2)"
         d="M 0.5,8.5 A 2,1.5 0 1 1 -3.5,8.5 A 2,1.5 0 1 1 0.5,8.5 z"
         sodipodi:ry="1.5"
         sodipodi:rx="2"
         sodipodi:cy="8.5"
         sodipodi:cx="-1.5"
         id="path4298"
         style="opacity:1;fill:#ffffff;fill-opacity:1;fill-rule:nonzero;stroke:#000000;stroke-width:1;stroke-linecap:butt;stroke-linejoin:miter;marker:none;marker-start:none;marker-mid:none;marker-end:none;stroke-miterlimit:4;stroke-dasharray:none;stroke-dashoffset:0;stroke-opacity:1;visibility:visible;display:inline;overflow:visible;enable-background:accumulate"
         sodipodi:type="arc" />
      <path
         transform="matrix(0.8314899,0,0,0.8250117,1.3344756,1.3871324)"
         d="M 14,8 A 6,6 0 1 1 2,8 A 6,6 0 1 1 14,8 z"
         sodipodi:ry="6"
         sodipodi:rx="6"
         sodipodi:cy="8"
         sodipodi:cx="8"
         id="path4300"
         style="opacity:1;fill:#00ff00;fill-opacity:1;fill-rule:nonzero;stroke:#000000;stroke-width:1;stroke-linecap:butt;stroke-linejoin:miter;marker:none;marker-start:none;marker-mid:none;marker-end:none;stroke-miterlimit:4;stroke-dasharray:none;stroke-dashoffset:0;stroke-opacity:1;visibility:visible;display:inline;overflow:visible;enable-background:accumulate"
         sodipodi:type="arc" />
      <path
         transform="translate(16.5,13.5)"
         d="M -8,-5.5 A 0.5,0.5 0 1 1 -9,-5.5 A 0.5,0.5 0 1 1 -8,-5.5 z"
         sodipodi:ry="0.5"
         sodipodi:rx="0.5"
         sodipodi:cy="-5.5"
         sodipodi:cx="-8.5"
         id="path4302"
         style="opacity:1;fill:#ffffff;fill-opacity:1;fill-rule:nonzero;stroke:#000000;stroke-width:1;stroke-linecap:butt;stroke-linejoin:miter;marker:none;marker-start:none;marker-mid:none;marker-end:none;stroke-miterlimit:4;stroke-dasharray:none;stroke-dashoffset:0;stroke-opacity:1;visibility:visible;display:inline;overflow:visible;enable-background:accumulate"
         sodipodi:type="arc" />
    </g>
  </g>
</svg>
