<?xml version="1.0" encoding="UTF-8" standalone="no"?>
<!-- Created with Inkscape (http://www.inkscape.org/) -->
<svg
   xmlns:dc="http://purl.org/dc/elements/1.1/"
   xmlns:cc="http://creativecommons.org/ns#"
   xmlns:rdf="http://www.w3.org/1999/02/22-rdf-syntax-ns#"
   xmlns:svg="http://www.w3.org/2000/svg"
   xmlns="http://www.w3.org/2000/svg"
   xmlns:sodipodi="http://sodipodi.sourceforge.net/DTD/sodipodi-0.dtd"
   xmlns:inkscape="http://www.inkscape.org/namespaces/inkscape"
   width="96"
   height="500"
   id="svg2"
   sodipodi:version="0.32"
   inkscape:version="0.46"
   version="1.0"
   sodipodi:docname="WinAnimation.svg"
   inkscape:output_extension="org.inkscape.output.svg.inkscape"
   inkscape:export-filename="C:\Documents and Settings\Edward\My Documents\Visual Studio 2005\Projects\Shoko-Rocket\src\ShokoRocket++\Sprites\WinAnimation.png"
   inkscape:export-xdpi="90"
   inkscape:export-ydpi="90">
  <defs
     id="defs4">
    <inkscape:perspective
       sodipodi:type="inkscape:persp3d"
       inkscape:vp_x="0 : 526.18109 : 1"
       inkscape:vp_y="0 : 1000 : 0"
       inkscape:vp_z="744.09448 : 526.18109 : 1"
       inkscape:persp3d-origin="372.04724 : 350.78739 : 1"
       id="perspective10" />
    <filter
       inkscape:collect="always"
       id="filter3278"
       x="-0.04154937"
       width="1.0830986"
       y="-0.10792633"
       height="1.2158527">
      <feGaussianBlur
         inkscape:collect="always"
         stdDeviation="1.3519775"
         id="feGaussianBlur3280" />
    </filter>
    <filter
       inkscape:collect="always"
       id="filter3417"
       x="-0.042189877"
       width="1.0843798"
       y="-0.10383175"
       height="1.2076635">
      <feGaussianBlur
         inkscape:collect="always"
         stdDeviation="1.4223447"
         id="feGaussianBlur3419" />
    </filter>
    <filter
       inkscape:collect="always"
       id="filter3421"
       x="-0.042189877"
       width="1.0843798"
       y="-0.10383175"
       height="1.2076635">
      <feGaussianBlur
         inkscape:collect="always"
         stdDeviation="1.4223447"
         id="feGaussianBlur3423" />
    </filter>
    <filter
       inkscape:collect="always"
       id="filter3585">
      <feGaussianBlur
         inkscape:collect="always"
         stdDeviation="1.3616015"
         id="feGaussianBlur3587" />
    </filter>
    <filter
       inkscape:collect="always"
       id="filter3589">
      <feGaussianBlur
         inkscape:collect="always"
         stdDeviation="0.93130446"
         id="feGaussianBlur3591" />
    </filter>
    <filter
       inkscape:collect="always"
       id="filter3593">
      <feGaussianBlur
         inkscape:collect="always"
         stdDeviation="0.60637974"
         id="feGaussianBlur3595" />
    </filter>
    <filter
       inkscape:collect="always"
       id="filter3597">
      <feGaussianBlur
         inkscape:collect="always"
         stdDeviation="0.30318987"
         id="feGaussianBlur3599" />
    </filter>
  </defs>
  <sodipodi:namedview
     id="base"
     pagecolor="#ffffff"
     bordercolor="#666666"
     borderopacity="1.0"
     gridtolerance="10000"
     guidetolerance="10"
     objecttolerance="10"
     inkscape:pageopacity="0.0"
     inkscape:pageshadow="2"
     inkscape:zoom="0.8"
     inkscape:cx="-135.24895"
     inkscape:cy="186.40816"
     inkscape:document-units="px"
     inkscape:current-layer="layer1"
     showgrid="true"
     inkscape:window-width="1180"
     inkscape:window-height="742"
     inkscape:window-x="92"
     inkscape:window-y="0">
    <inkscape:grid
       type="xygrid"
       id="grid3291"
       visible="true"
       enabled="true"
       empspacing="4"
       spacingx="4px"
       spacingy="4px" />
    <inkscape:grid
       type="xygrid"
       id="grid3437"
       visible="true"
       enabled="true"
       spacingx="96px"
       spacingy="50px"
       empspacing="1"
       color="#ff00ff"
       opacity="0.1254902"
       dotted="false"
       empcolor="#fb0000"
       empopacity="0.25098039" />
  </sodipodi:namedview>
  <metadata
     id="metadata7">
    <rdf:RDF>
      <cc:Work
         rdf:about="">
        <dc:format>image/svg+xml</dc:format>
        <dc:type
           rdf:resource="http://purl.org/dc/dcmitype/StillImage" />
      </cc:Work>
    </rdf:RDF>
  </metadata>
  <g
     inkscape:label="Layer 1"
     inkscape:groupmode="layer"
     id="layer1">
    <g
       id="g3284"
       transform="translate(0,-23.000009)"
       style="opacity:0.25">
      <path
         transform="translate(-0.4423828,12.344391)"
         d="M 9.28125,19.21875 C 8.8751162,19.253932 8.5041846,19.463468 8.2644136,19.793153 C 8.0246425,20.122838 7.9395868,20.540284 8.03125,20.9375 L 15.1875,51 C 15.334081,51.641006 15.904949,52.095106 16.5625,52.09375 L 23.15625,52.09375 C 23.795621,52.102234 24.360371,51.678672 24.53125,51.0625 L 29.125,33.75 L 33.75,51.0625 C 33.920879,51.678672 34.485629,52.102234 35.125,52.09375 L 41.5625,52.09375 C 42.210844,52.098548 42.778589,51.659836 42.9375,51.03125 L 50.21875,20.96875 C 50.324693,20.546486 50.229271,20.098963 49.960302,19.756638 C 49.691332,19.414313 49.279091,19.21572 48.84375,19.21875 L 42.75,19.21875 C 42.092449,19.217394 41.521581,19.671494 41.375,20.3125 L 38.03125,35.46875 L 34.21875,20.28125 C 34.059839,19.652664 33.492094,19.213952 32.84375,19.21875 L 25.625,19.21875 C 24.985629,19.210266 24.420879,19.633828 24.25,20.25 L 20.28125,35.25 L 17,20.3125 C 16.853419,19.671494 16.282551,19.217394 15.625,19.21875 L 9.40625,19.21875 C 9.3646039,19.216899 9.3228961,19.216899 9.28125,19.21875 z M 51.625,19.21875 C 50.897829,19.284243 50.341463,19.894889 50.34375,20.625 L 50.34375,50.6875 C 50.344447,51.463861 50.973639,52.093053 51.75,52.09375 L 57.8125,52.09375 C 58.588861,52.093053 59.218053,51.463861 59.21875,50.6875 L 59.21875,20.625 C 59.218053,19.848639 58.588861,19.219447 57.8125,19.21875 L 51.75,19.21875 C 51.708354,19.216899 51.666646,19.216899 51.625,19.21875 z M 63.5,19.21875 C 62.772829,19.284243 62.216463,19.894889 62.21875,20.625 L 62.21875,50.6875 C 62.219447,51.463861 62.848639,52.093053 63.625,52.09375 L 69.28125,52.09375 C 70.057611,52.093053 70.686803,51.463861 70.6875,50.6875 L 70.6875,36.03125 L 80.21875,51.4375 C 80.476072,51.845185 80.924149,52.092807 81.40625,52.09375 L 87.5,52.09375 C 88.276361,52.093053 88.905553,51.463861 88.90625,50.6875 L 88.90625,20.625 C 88.905553,19.848639 88.276361,19.219447 87.5,19.21875 L 81.84375,19.21875 C 81.067389,19.219447 80.438197,19.848639 80.4375,20.625 L 80.4375,35.71875 L 70.71875,19.875 C 70.461428,19.467315 70.013351,19.219693 69.53125,19.21875 L 63.625,19.21875 C 63.583354,19.216899 63.541646,19.216899 63.5,19.21875 z"
         id="path3282"
         style="font-size:40px;font-style:normal;font-weight:normal;fill:#00ff00;fill-opacity:1;stroke:none;stroke-width:1px;stroke-linecap:butt;stroke-linejoin:miter;stroke-opacity:1;filter:url(#filter3278);font-family:Bitstream Vera Sans"
         inkscape:original="M 9.40625 20.625 L 16.5625 50.6875 L 23.15625 50.6875 L 29.125 28.21875 L 35.125 50.6875 L 41.5625 50.6875 L 48.84375 20.625 L 42.75 20.625 L 38.125 41.625 L 32.84375 20.625 L 25.625 20.625 L 20.15625 41.28125 L 15.625 20.625 L 9.40625 20.625 z M 51.75 20.625 L 51.75 50.6875 L 57.8125 50.6875 L 57.8125 20.625 L 51.75 20.625 z M 63.625 20.625 L 63.625 50.6875 L 69.28125 50.6875 L 69.28125 31.09375 L 81.40625 50.6875 L 87.5 50.6875 L 87.5 20.625 L 81.84375 20.625 L 81.84375 40.6875 L 69.53125 20.625 L 63.625 20.625 z "
         inkscape:radius="2.5"
         sodipodi:type="inkscape:offset" />
      <flowRoot
         transform="translate(-0.4423828,12.344391)"
         style="font-size:40px;font-style:normal;font-weight:normal;fill:#ffffff;fill-opacity:1;stroke:none;stroke-width:1px;stroke-linecap:butt;stroke-linejoin:miter;stroke-opacity:1;font-family:Bitstream Vera Sans"
         id="flowRoot2383"
         xml:space="preserve"><flowRegion
           id="flowRegion2385"><rect
             style="font-size:40px;font-weight:normal;fill:#ffffff"
             y="15.590916"
             x="2.1468444"
             height="46.449909"
             width="95.827332"
             id="rect2387" /></flowRegion><flowPara
           style="font-size:42px;font-style:normal;font-variant:normal;font-weight:bold;font-stretch:normal;text-align:center;line-height:125%;writing-mode:lr-tb;text-anchor:middle;fill:#ffffff;font-family:Arial;-inkscape-font-specification:Arial Bold"
           id="flowPara2389">WIN</flowPara></flowRoot>    </g>
    <g
       transform="translate(0,26.999991)"
       id="g3305"
       style="opacity:0.5">
      <path
         sodipodi:type="inkscape:offset"
         inkscape:radius="3.5"
         inkscape:original="M 9.40625 20.625 L 16.5625 50.6875 L 23.15625 50.6875 L 29.125 28.21875 L 35.125 50.6875 L 41.5625 50.6875 L 48.84375 20.625 L 42.75 20.625 L 38.125 41.625 L 32.84375 20.625 L 25.625 20.625 L 20.15625 41.28125 L 15.625 20.625 L 9.40625 20.625 z M 51.75 20.625 L 51.75 50.6875 L 57.8125 50.6875 L 57.8125 20.625 L 51.75 20.625 z M 63.625 20.625 L 63.625 50.6875 L 69.28125 50.6875 L 69.28125 31.09375 L 81.40625 50.6875 L 87.5 50.6875 L 87.5 20.625 L 81.84375 20.625 L 81.84375 40.6875 L 69.53125 20.625 L 63.625 20.625 z "
         style="font-size:40px;font-style:normal;font-weight:normal;fill:#00ff00;fill-opacity:1;stroke:none;stroke-width:1px;stroke-linecap:butt;stroke-linejoin:miter;stroke-opacity:1;filter:url(#filter3417);font-family:Bitstream Vera Sans"
         id="path3307"
         d="M 9.1875,18.46875 C 8.5670663,18.531527 8.0042932,18.860123 7.6446726,19.369585 C 7.285052,19.879048 7.1638863,20.519366 7.3125,21.125 L 14.46875,51.1875 C 14.699136,52.157684 15.565337,52.842888 16.5625,52.84375 L 23.15625,52.84375 C 24.135272,52.850095 24.995412,52.195362 25.25,51.25 L 29.125,36.65625 L 33.03125,51.25 C 33.285838,52.195362 34.145978,52.850095 35.125,52.84375 L 41.5625,52.84375 C 42.559663,52.842888 43.425864,52.157684 43.65625,51.1875 L 49.59375,26.6875 L 49.59375,50.6875 C 49.593122,51.259565 49.820096,51.808381 50.224608,52.212892 C 50.629119,52.617404 51.177935,52.844378 51.75,52.84375 L 57.8125,52.84375 C 58.384565,52.844378 58.933381,52.617404 59.337892,52.212892 C 59.742404,51.808381 59.969378,51.259565 59.96875,50.6875 L 59.96875,20.625 C 59.969378,20.052935 59.742404,19.504119 59.337892,19.099608 C 58.933381,18.695096 58.384565,18.468122 57.8125,18.46875 L 51.75,18.46875 C 51.217794,18.47221 50.705714,18.672589 50.3125,19.03125 C 49.911323,18.665315 49.386735,18.464409 48.84375,18.46875 L 42.75,18.46875 C 41.743534,18.472975 40.874176,19.173652 40.65625,20.15625 L 38,32.25 L 34.9375,20.09375 C 34.694895,19.135978 33.831766,18.466088 32.84375,18.46875 L 25.625,18.46875 C 24.645978,18.462405 23.785838,19.117138 23.53125,20.0625 L 20.34375,32.125 L 17.71875,20.15625 C 17.500824,19.173652 16.631466,18.472975 15.625,18.46875 L 9.40625,18.46875 C 9.3333804,18.465045 9.2603696,18.465045 9.1875,18.46875 L 9.1875,18.46875 z M 63.40625,18.46875 C 62.301008,18.58033 61.461914,19.514161 61.46875,20.625 L 61.46875,50.6875 C 61.468122,51.259565 61.695096,51.808381 62.099608,52.212892 C 62.504119,52.617404 63.052935,52.844378 63.625,52.84375 L 69.28125,52.84375 C 69.853315,52.844378 70.402131,52.617404 70.806642,52.212892 C 71.211154,51.808381 71.438128,51.259565 71.4375,50.6875 L 71.4375,38.6875 L 79.5625,51.8125 C 79.954731,52.454737 80.653715,52.845693 81.40625,52.84375 L 87.5,52.84375 C 88.072065,52.844378 88.620881,52.617404 89.025392,52.212892 C 89.429904,51.808381 89.656878,51.259565 89.65625,50.6875 L 89.65625,20.625 C 89.656878,20.052935 89.429904,19.504119 89.025392,19.099608 C 88.620881,18.695096 88.072065,18.468122 87.5,18.46875 L 81.84375,18.46875 C 81.271685,18.468122 80.722869,18.695096 80.318358,19.099608 C 79.913846,19.504119 79.686872,20.052935 79.6875,20.625 L 79.6875,33.03125 L 71.375,19.5 C 70.982769,18.857763 70.283785,18.466807 69.53125,18.46875 L 63.625,18.46875 C 63.55213,18.465045 63.47912,18.465045 63.40625,18.46875 L 63.40625,18.46875 z"
         transform="translate(-0.4423828,12.344391)" />
      <flowRoot
         xml:space="preserve"
         id="flowRoot3309"
         style="font-size:40px;font-style:normal;font-weight:normal;fill:#ffffff;fill-opacity:1;stroke:none;stroke-width:1px;stroke-linecap:butt;stroke-linejoin:miter;stroke-opacity:1;font-family:Bitstream Vera Sans"
         transform="translate(-0.4423828,12.344391)"><flowRegion
           id="flowRegion3311"><rect
             id="rect3313"
             width="95.827332"
             height="46.449909"
             x="2.1468444"
             y="15.590916"
             style="font-size:40px;font-weight:normal;fill:#ffffff" /></flowRegion><flowPara
           id="flowPara3315"
           style="font-size:42px;font-style:normal;font-variant:normal;font-weight:bold;font-stretch:normal;text-align:center;line-height:125%;writing-mode:lr-tb;text-anchor:middle;fill:#ffffff;font-family:Arial;-inkscape-font-specification:Arial Bold">WIN</flowPara></flowRoot>    </g>
    <g
       id="g3317"
       transform="translate(0,76.999991)"
       style="opacity:0.75">
      <path
         transform="translate(-0.4423828,12.344391)"
         d="M 9.40625,17.34375 C 8.4045256,17.343629 7.4578173,17.801895 6.8365122,18.587664 C 6.215207,19.373432 5.9876194,20.400305 6.21875,21.375 L 13.375,51.4375 C 13.720689,52.919131 15.041076,53.967674 16.5625,53.96875 L 23.15625,53.96875 C 24.638708,53.964118 25.933239,52.964381 26.3125,51.53125 L 29.125,40.90625 L 31.96875,51.53125 C 32.348011,52.964381 33.642542,53.964118 35.125,53.96875 L 41.5625,53.96875 C 43.074706,53.971121 44.391979,52.937966 44.75,51.46875 L 48.46875,36.125 L 48.46875,50.6875 C 48.467217,51.558211 48.812427,52.393701 49.428113,53.009387 C 50.043799,53.625073 50.879289,53.970283 51.75,53.96875 L 57.8125,53.96875 C 59.038225,53.965547 60.159591,53.278258 60.71875,52.1875 C 61.277909,53.278258 62.399275,53.965547 63.625,53.96875 L 69.28125,53.96875 C 70.151961,53.970283 70.987451,53.625073 71.603137,53.009387 C 72.218823,52.393701 72.564033,51.558211 72.5625,50.6875 L 72.5625,42.625 L 78.625,52.40625 C 79.218679,53.373854 80.271041,53.965068 81.40625,53.96875 L 87.5,53.96875 C 88.370711,53.970283 89.206201,53.625073 89.821887,53.009387 C 90.437573,52.393701 90.782783,51.558211 90.78125,50.6875 L 90.78125,20.625 C 90.782783,19.754289 90.437573,18.918799 89.821887,18.303113 C 89.206201,17.687427 88.370711,17.342217 87.5,17.34375 L 81.84375,17.34375 C 80.973039,17.342217 80.137549,17.687427 79.521863,18.303113 C 78.906177,18.918799 78.560967,19.754289 78.5625,20.625 L 78.5625,29.09375 L 72.3125,18.90625 C 71.718821,17.938646 70.666459,17.347432 69.53125,17.34375 L 63.625,17.34375 C 62.399275,17.346953 61.277909,18.034242 60.71875,19.125 C 60.159591,18.034242 59.038225,17.346953 57.8125,17.34375 L 51.75,17.34375 C 51.250902,17.347315 50.759219,17.464892 50.3125,17.6875 C 49.856328,17.46021 49.353409,17.342505 48.84375,17.34375 L 42.75,17.34375 C 41.219256,17.348166 39.895698,18.412204 39.5625,19.90625 L 37.9375,27.34375 L 36.03125,19.8125 C 35.661054,18.355698 34.346841,17.337827 32.84375,17.34375 L 25.625,17.34375 C 24.142542,17.348382 22.848011,18.348119 22.46875,19.78125 L 20.4375,27.40625 L 18.8125,19.9375 C 18.491955,18.431039 17.165168,17.351398 15.625,17.34375 L 9.40625,17.34375 z"
         id="path3319"
         style="font-size:40px;font-style:normal;font-weight:normal;fill:#00ff00;fill-opacity:1;stroke:none;stroke-width:1px;stroke-linecap:butt;stroke-linejoin:miter;stroke-opacity:1;filter:url(#filter3421);font-family:Bitstream Vera Sans"
         inkscape:original="M 9.40625 20.625 L 16.5625 50.6875 L 23.15625 50.6875 L 29.125 28.21875 L 35.125 50.6875 L 41.5625 50.6875 L 48.84375 20.625 L 42.75 20.625 L 38.125 41.625 L 32.84375 20.625 L 25.625 20.625 L 20.15625 41.28125 L 15.625 20.625 L 9.40625 20.625 z M 51.75 20.625 L 51.75 50.6875 L 57.8125 50.6875 L 57.8125 20.625 L 51.75 20.625 z M 63.625 20.625 L 63.625 50.6875 L 69.28125 50.6875 L 69.28125 31.09375 L 81.40625 50.6875 L 87.5 50.6875 L 87.5 20.625 L 81.84375 20.625 L 81.84375 40.6875 L 69.53125 20.625 L 63.625 20.625 z "
         inkscape:radius="4"
         sodipodi:type="inkscape:offset" />
      <flowRoot
         transform="translate(-0.4423828,12.344391)"
         style="font-size:40px;font-style:normal;font-weight:normal;fill:#ffffff;fill-opacity:1;stroke:none;stroke-width:1px;stroke-linecap:butt;stroke-linejoin:miter;stroke-opacity:1;font-family:Bitstream Vera Sans"
         id="flowRoot3321"
         xml:space="preserve"><flowRegion
           id="flowRegion3323"><rect
             style="font-size:40px;font-weight:normal;fill:#ffffff"
             y="15.590916"
             x="2.1468444"
             height="46.449909"
             width="95.827332"
             id="rect3325" /></flowRegion><flowPara
           style="font-size:42px;font-style:normal;font-variant:normal;font-weight:bold;font-stretch:normal;text-align:center;line-height:125%;writing-mode:lr-tb;text-anchor:middle;fill:#ffffff;font-family:Arial;-inkscape-font-specification:Arial Bold"
           id="flowPara3327">WIN</flowPara></flowRoot>    </g>
    <g
       transform="translate(0,126.99999)"
       id="g3439">
      <path
         sodipodi:type="inkscape:offset"
         inkscape:radius="5"
         inkscape:original="M 9.40625 20.625 L 16.5625 50.6875 L 23.15625 50.6875 L 29.125 28.21875 L 35.125 50.6875 L 41.5625 50.6875 L 48.84375 20.625 L 42.75 20.625 L 38.125 41.625 L 32.84375 20.625 L 25.625 20.625 L 20.15625 41.28125 L 15.625 20.625 L 9.40625 20.625 z M 51.75 20.625 L 51.75 50.6875 L 57.8125 50.6875 L 57.8125 20.625 L 51.75 20.625 z M 63.625 20.625 L 63.625 50.6875 L 69.28125 50.6875 L 69.28125 31.09375 L 81.40625 50.6875 L 87.5 50.6875 L 87.5 20.625 L 81.84375 20.625 L 81.84375 40.6875 L 69.53125 20.625 L 63.625 20.625 z "
         style="font-size:40px;font-style:normal;font-weight:normal;fill:#00ff00;fill-opacity:1;stroke:none;stroke-width:1px;stroke-linecap:butt;stroke-linejoin:miter;stroke-opacity:1;filter:url(#filter3421);font-family:Bitstream Vera Sans"
         id="path3441"
         d="M 9.40625,16.625 C 8.1773669,16.619727 7.0142479,17.179564 6.251782,18.14332 C 5.4893162,19.107077 5.2121182,20.367801 5.5,21.5625 L 12.65625,51.625 C 13.091039,53.427882 14.707948,54.695539 16.5625,54.6875 L 23.15625,54.6875 C 24.971973,54.691998 26.563003,53.473064 27.03125,51.71875 L 29.125,43.8125 L 31.25,51.71875 C 31.718247,53.473064 33.309277,54.691998 35.125,54.6875 L 41.5625,54.6875 C 43.405386,54.681094 45.005441,53.416534 45.4375,51.625 L 47.75,42.0625 L 47.75,50.6875 C 47.750221,52.896548 49.540952,54.687279 51.75,54.6875 L 57.8125,54.6875 C 58.911854,54.687868 59.96291,54.235801 60.71875,53.4375 C 61.47459,54.235801 62.525646,54.687868 63.625,54.6875 L 69.28125,54.6875 C 71.490298,54.687279 73.281029,52.896548 73.28125,50.6875 L 73.28125,45.15625 L 78,52.78125 C 78.727336,53.965077 80.016839,54.686725 81.40625,54.6875 L 87.5,54.6875 C 89.709048,54.687279 91.499779,52.896548 91.5,50.6875 L 91.5,20.625 C 91.499779,18.415952 89.709048,16.625221 87.5,16.625 L 81.84375,16.625 C 79.634702,16.625221 77.843971,18.415952 77.84375,20.625 L 77.84375,26.53125 L 72.9375,18.53125 C 72.210164,17.347423 70.920661,16.625775 69.53125,16.625 L 63.625,16.625 C 62.525646,16.624632 61.47459,17.076699 60.71875,17.875 C 59.96291,17.076699 58.911854,16.624632 57.8125,16.625 L 51.75,16.625 C 51.24709,16.625595 50.748802,16.721012 50.28125,16.90625 C 49.823477,16.724827 49.336143,16.629479 48.84375,16.625 L 42.75,16.625 C 40.87688,16.623686 39.253641,17.922278 38.84375,19.75 L 37.875,24.21875 L 36.71875,19.65625 C 36.274502,17.877124 34.677499,16.627856 32.84375,16.625 L 25.625,16.625 C 23.809277,16.620502 22.218247,17.839436 21.75,19.59375 L 20.5,24.25 L 19.53125,19.78125 C 19.134006,17.941108 17.507531,16.626916 15.625,16.625 L 9.40625,16.625 z"
         transform="translate(-0.4423828,12.344391)" />
      <flowRoot
         xml:space="preserve"
         id="flowRoot3443"
         style="font-size:40px;font-style:normal;font-weight:normal;fill:#ffffff;fill-opacity:1;stroke:none;stroke-width:1px;stroke-linecap:butt;stroke-linejoin:miter;stroke-opacity:1;font-family:Bitstream Vera Sans"
         transform="translate(-0.4423828,12.344391)"><flowRegion
           id="flowRegion3445"><rect
             id="rect3447"
             width="95.827332"
             height="46.449909"
             x="2.1468444"
             y="15.590916"
             style="font-size:40px;font-weight:normal;fill:#ffffff" /></flowRegion><flowPara
           id="flowPara3449"
           style="font-size:42px;font-style:normal;font-variant:normal;font-weight:bold;font-stretch:normal;text-align:center;line-height:125%;writing-mode:lr-tb;text-anchor:middle;fill:#ffffff;font-family:Arial;-inkscape-font-specification:Arial Bold">WIN</flowPara></flowRoot>    </g>
    <g
       id="g3451"
       transform="translate(0,176.99999)">
      <path
         transform="translate(-0.4423828,12.344391)"
         d="M 9.40625,15.625 C 7.8749894,15.621969 6.4267505,16.320698 5.4761346,17.521155 C 4.5255187,18.721613 4.1773308,20.291448 4.53125,21.78125 L 11.6875,51.84375 C 12.224147,54.100713 14.242618,55.6922 16.5625,55.6875 L 23.15625,55.6875 C 25.428139,55.692184 27.417663,54.164743 28,51.96875 L 29.125,47.6875 L 30.28125,51.96875 C 30.863587,54.164743 32.853111,55.692184 35.125,55.6875 L 41.5625,55.6875 C 43.873186,55.695662 45.888547,54.119546 46.4375,51.875 L 46.75,50.59375 L 46.75,50.6875 C 46.750276,53.448809 48.988691,55.687224 51.75,55.6875 L 57.8125,55.6875 C 58.855305,55.68568 59.871452,55.357891 60.71875,54.75 C 61.566048,55.357891 62.582195,55.68568 63.625,55.6875 L 69.28125,55.6875 C 72.042559,55.687224 74.280974,53.448809 74.28125,50.6875 L 74.28125,48.65625 L 77.15625,53.3125 C 78.065858,54.786926 79.67382,55.685493 81.40625,55.6875 L 87.5,55.6875 C 90.261309,55.687224 92.499724,53.448809 92.5,50.6875 L 92.5,20.625 C 92.499724,17.863691 90.261309,15.625276 87.5,15.625 L 81.84375,15.625 C 79.082441,15.625276 76.844026,17.863691 76.84375,20.625 L 76.84375,23 L 73.78125,18 C 72.871642,16.525574 71.26368,15.627007 69.53125,15.625 L 63.625,15.625 C 62.582195,15.62682 61.566048,15.954609 60.71875,16.5625 C 59.871452,15.954609 58.855305,15.62682 57.8125,15.625 L 51.75,15.625 C 51.252258,15.624412 50.757218,15.698141 50.28125,15.84375 C 49.815301,15.701184 49.331015,15.627489 48.84375,15.625 L 42.75,15.625 C 40.402127,15.630264 38.374103,17.268283 37.875,19.5625 L 37.8125,19.875 L 37.6875,19.40625 C 37.129161,17.185445 35.133665,15.62767 32.84375,15.625 L 25.625,15.625 C 23.353111,15.620316 21.363587,17.147757 20.78125,19.34375 L 20.59375,20.03125 L 20.5,19.5625 C 20.000897,17.268283 17.972873,15.630264 15.625,15.625 L 9.40625,15.625 z"
         id="path3453"
         style="font-size:40px;font-style:normal;font-weight:normal;fill:#00ff00;fill-opacity:1;stroke:none;stroke-width:1px;stroke-linecap:butt;stroke-linejoin:miter;stroke-opacity:1;filter:url(#filter3585);font-family:Bitstream Vera Sans"
         inkscape:original="M 9.40625 20.625 L 16.5625 50.6875 L 23.15625 50.6875 L 29.125 28.21875 L 35.125 50.6875 L 41.5625 50.6875 L 48.84375 20.625 L 42.75 20.625 L 38.125 41.625 L 32.84375 20.625 L 25.625 20.625 L 20.15625 41.28125 L 15.625 20.625 L 9.40625 20.625 z M 51.75 20.625 L 51.75 50.6875 L 57.8125 50.6875 L 57.8125 20.625 L 51.75 20.625 z M 63.625 20.625 L 63.625 50.6875 L 69.28125 50.6875 L 69.28125 31.09375 L 81.40625 50.6875 L 87.5 50.6875 L 87.5 20.625 L 81.84375 20.625 L 81.84375 40.6875 L 69.53125 20.625 L 63.625 20.625 z "
         inkscape:radius="7"
         sodipodi:type="inkscape:offset" />
      <flowRoot
         transform="translate(-0.4423828,12.344391)"
         style="font-size:40px;font-style:normal;font-weight:normal;fill:#ffffff;fill-opacity:1;stroke:none;stroke-width:1px;stroke-linecap:butt;stroke-linejoin:miter;stroke-opacity:1;font-family:Bitstream Vera Sans"
         id="flowRoot3455"
         xml:space="preserve"><flowRegion
           id="flowRegion3457"><rect
             style="font-size:40px;font-weight:normal;fill:#ffffff"
             y="15.590916"
             x="2.1468444"
             height="46.449909"
             width="95.827332"
             id="rect3459" /></flowRegion><flowPara
           style="font-size:42px;font-style:normal;font-variant:normal;font-weight:bold;font-stretch:normal;text-align:center;line-height:125%;writing-mode:lr-tb;text-anchor:middle;fill:#ffffff;font-family:Arial;-inkscape-font-specification:Arial Bold"
           id="flowPara3461">WIN</flowPara></flowRoot>    </g>
    <g
       transform="translate(0,226.99999)"
       id="g3497">
      <path
         sodipodi:type="inkscape:offset"
         inkscape:radius="4"
         inkscape:original="M 9.40625 20.625 L 16.5625 50.6875 L 23.15625 50.6875 L 29.125 28.21875 L 35.125 50.6875 L 41.5625 50.6875 L 48.84375 20.625 L 42.75 20.625 L 38.125 41.625 L 32.84375 20.625 L 25.625 20.625 L 20.15625 41.28125 L 15.625 20.625 L 9.40625 20.625 z M 51.75 20.625 L 51.75 50.6875 L 57.8125 50.6875 L 57.8125 20.625 L 51.75 20.625 z M 63.625 20.625 L 63.625 50.6875 L 69.28125 50.6875 L 69.28125 31.09375 L 81.40625 50.6875 L 87.5 50.6875 L 87.5 20.625 L 81.84375 20.625 L 81.84375 40.6875 L 69.53125 20.625 L 63.625 20.625 z "
         style="font-size:40px;font-style:normal;font-weight:normal;fill:#00ff00;fill-opacity:1;stroke:none;stroke-width:1px;stroke-linecap:butt;stroke-linejoin:miter;stroke-opacity:1;filter:url(#filter3589);font-family:Bitstream Vera Sans"
         id="path3499"
         d="M 9.40625,17.34375 C 8.4045256,17.343629 7.4578173,17.801895 6.8365122,18.587664 C 6.215207,19.373432 5.9876194,20.400305 6.21875,21.375 L 13.375,51.4375 C 13.720689,52.919131 15.041076,53.967674 16.5625,53.96875 L 23.15625,53.96875 C 24.638708,53.964118 25.933239,52.964381 26.3125,51.53125 L 29.125,40.90625 L 31.96875,51.53125 C 32.348011,52.964381 33.642542,53.964118 35.125,53.96875 L 41.5625,53.96875 C 43.074706,53.971121 44.391979,52.937966 44.75,51.46875 L 48.46875,36.125 L 48.46875,50.6875 C 48.467217,51.558211 48.812427,52.393701 49.428113,53.009387 C 50.043799,53.625073 50.879289,53.970283 51.75,53.96875 L 57.8125,53.96875 C 59.038225,53.965547 60.159591,53.278258 60.71875,52.1875 C 61.277909,53.278258 62.399275,53.965547 63.625,53.96875 L 69.28125,53.96875 C 70.151961,53.970283 70.987451,53.625073 71.603137,53.009387 C 72.218823,52.393701 72.564033,51.558211 72.5625,50.6875 L 72.5625,42.625 L 78.625,52.40625 C 79.218679,53.373854 80.271041,53.965068 81.40625,53.96875 L 87.5,53.96875 C 88.370711,53.970283 89.206201,53.625073 89.821887,53.009387 C 90.437573,52.393701 90.782783,51.558211 90.78125,50.6875 L 90.78125,20.625 C 90.782783,19.754289 90.437573,18.918799 89.821887,18.303113 C 89.206201,17.687427 88.370711,17.342217 87.5,17.34375 L 81.84375,17.34375 C 80.973039,17.342217 80.137549,17.687427 79.521863,18.303113 C 78.906177,18.918799 78.560967,19.754289 78.5625,20.625 L 78.5625,29.09375 L 72.3125,18.90625 C 71.718821,17.938646 70.666459,17.347432 69.53125,17.34375 L 63.625,17.34375 C 62.399275,17.346953 61.277909,18.034242 60.71875,19.125 C 60.159591,18.034242 59.038225,17.346953 57.8125,17.34375 L 51.75,17.34375 C 51.250902,17.347315 50.759219,17.464892 50.3125,17.6875 C 49.856328,17.46021 49.353409,17.342505 48.84375,17.34375 L 42.75,17.34375 C 41.219256,17.348166 39.895698,18.412204 39.5625,19.90625 L 37.9375,27.34375 L 36.03125,19.8125 C 35.661054,18.355698 34.346841,17.337827 32.84375,17.34375 L 25.625,17.34375 C 24.142542,17.348382 22.848011,18.348119 22.46875,19.78125 L 20.4375,27.40625 L 18.8125,19.9375 C 18.491955,18.431039 17.165168,17.351398 15.625,17.34375 L 9.40625,17.34375 z"
         transform="translate(-0.4423828,12.344391)" />
      <flowRoot
         xml:space="preserve"
         id="flowRoot3501"
         style="font-size:40px;font-style:normal;font-weight:normal;fill:#ffffff;fill-opacity:1;stroke:none;stroke-width:1px;stroke-linecap:butt;stroke-linejoin:miter;stroke-opacity:1;font-family:Bitstream Vera Sans"
         transform="translate(-0.4423828,12.344391)"><flowRegion
           id="flowRegion3503"><rect
             id="rect3505"
             width="95.827332"
             height="46.449909"
             x="2.1468444"
             y="15.590916"
             style="font-size:40px;font-weight:normal;fill:#ffffff" /></flowRegion><flowPara
           id="flowPara3507"
           style="font-size:42px;font-style:normal;font-variant:normal;font-weight:bold;font-stretch:normal;text-align:center;line-height:125%;writing-mode:lr-tb;text-anchor:middle;fill:#ffffff;font-family:Arial;-inkscape-font-specification:Arial Bold">WIN</flowPara></flowRoot>    </g>
    <g
       id="g3513"
       transform="translate(0,276.99999)"
       style="opacity:0.8">
      <path
         transform="translate(-0.4423828,12.344391)"
         d="M 9.40625,17.34375 C 8.4045256,17.343629 7.4578173,17.801895 6.8365122,18.587664 C 6.215207,19.373432 5.9876194,20.400305 6.21875,21.375 L 13.375,51.4375 C 13.720689,52.919131 15.041076,53.967674 16.5625,53.96875 L 23.15625,53.96875 C 24.638708,53.964118 25.933239,52.964381 26.3125,51.53125 L 29.125,40.90625 L 31.96875,51.53125 C 32.348011,52.964381 33.642542,53.964118 35.125,53.96875 L 41.5625,53.96875 C 43.074706,53.971121 44.391979,52.937966 44.75,51.46875 L 48.46875,36.125 L 48.46875,50.6875 C 48.467217,51.558211 48.812427,52.393701 49.428113,53.009387 C 50.043799,53.625073 50.879289,53.970283 51.75,53.96875 L 57.8125,53.96875 C 59.038225,53.965547 60.159591,53.278258 60.71875,52.1875 C 61.277909,53.278258 62.399275,53.965547 63.625,53.96875 L 69.28125,53.96875 C 70.151961,53.970283 70.987451,53.625073 71.603137,53.009387 C 72.218823,52.393701 72.564033,51.558211 72.5625,50.6875 L 72.5625,42.625 L 78.625,52.40625 C 79.218679,53.373854 80.271041,53.965068 81.40625,53.96875 L 87.5,53.96875 C 88.370711,53.970283 89.206201,53.625073 89.821887,53.009387 C 90.437573,52.393701 90.782783,51.558211 90.78125,50.6875 L 90.78125,20.625 C 90.782783,19.754289 90.437573,18.918799 89.821887,18.303113 C 89.206201,17.687427 88.370711,17.342217 87.5,17.34375 L 81.84375,17.34375 C 80.973039,17.342217 80.137549,17.687427 79.521863,18.303113 C 78.906177,18.918799 78.560967,19.754289 78.5625,20.625 L 78.5625,29.09375 L 72.3125,18.90625 C 71.718821,17.938646 70.666459,17.347432 69.53125,17.34375 L 63.625,17.34375 C 62.399275,17.346953 61.277909,18.034242 60.71875,19.125 C 60.159591,18.034242 59.038225,17.346953 57.8125,17.34375 L 51.75,17.34375 C 51.250902,17.347315 50.759219,17.464892 50.3125,17.6875 C 49.856328,17.46021 49.353409,17.342505 48.84375,17.34375 L 42.75,17.34375 C 41.219256,17.348166 39.895698,18.412204 39.5625,19.90625 L 37.9375,27.34375 L 36.03125,19.8125 C 35.661054,18.355698 34.346841,17.337827 32.84375,17.34375 L 25.625,17.34375 C 24.142542,17.348382 22.848011,18.348119 22.46875,19.78125 L 20.4375,27.40625 L 18.8125,19.9375 C 18.491955,18.431039 17.165168,17.351398 15.625,17.34375 L 9.40625,17.34375 z"
         id="path3515"
         style="font-size:40px;font-style:normal;font-weight:normal;fill:#00ff00;fill-opacity:1;stroke:none;stroke-width:1px;stroke-linecap:butt;stroke-linejoin:miter;stroke-opacity:1;filter:url(#filter3593);font-family:Bitstream Vera Sans"
         inkscape:original="M 9.40625 20.625 L 16.5625 50.6875 L 23.15625 50.6875 L 29.125 28.21875 L 35.125 50.6875 L 41.5625 50.6875 L 48.84375 20.625 L 42.75 20.625 L 38.125 41.625 L 32.84375 20.625 L 25.625 20.625 L 20.15625 41.28125 L 15.625 20.625 L 9.40625 20.625 z M 51.75 20.625 L 51.75 50.6875 L 57.8125 50.6875 L 57.8125 20.625 L 51.75 20.625 z M 63.625 20.625 L 63.625 50.6875 L 69.28125 50.6875 L 69.28125 31.09375 L 81.40625 50.6875 L 87.5 50.6875 L 87.5 20.625 L 81.84375 20.625 L 81.84375 40.6875 L 69.53125 20.625 L 63.625 20.625 z "
         inkscape:radius="3.2751603"
         sodipodi:type="inkscape:offset" />
      <flowRoot
         transform="translate(-0.4423828,12.344391)"
         style="font-size:40px;font-style:normal;font-weight:normal;fill:#ffffff;fill-opacity:1;stroke:none;stroke-width:1px;stroke-linecap:butt;stroke-linejoin:miter;stroke-opacity:1;font-family:Bitstream Vera Sans"
         id="flowRoot3517"
         xml:space="preserve"><flowRegion
           id="flowRegion3519"><rect
             style="font-size:40px;font-weight:normal;fill:#ffffff"
             y="15.590916"
             x="2.1468444"
             height="46.449909"
             width="95.827332"
             id="rect3521" /></flowRegion><flowPara
           style="font-size:42px;font-style:normal;font-variant:normal;font-weight:bold;font-stretch:normal;text-align:center;line-height:125%;writing-mode:lr-tb;text-anchor:middle;fill:#ffffff;font-family:Arial;-inkscape-font-specification:Arial Bold"
           id="flowPara3523">WIN</flowPara></flowRoot>    </g>
    <g
       transform="translate(0,326.99999)"
       id="g3529"
       style="opacity:0.6">
      <path
         sodipodi:type="inkscape:offset"
         inkscape:radius="3.2751603"
         inkscape:original="M 9.40625 20.625 L 16.5625 50.6875 L 23.15625 50.6875 L 29.125 28.21875 L 35.125 50.6875 L 41.5625 50.6875 L 48.84375 20.625 L 42.75 20.625 L 38.125 41.625 L 32.84375 20.625 L 25.625 20.625 L 20.15625 41.28125 L 15.625 20.625 L 9.40625 20.625 z M 51.75 20.625 L 51.75 50.6875 L 57.8125 50.6875 L 57.8125 20.625 L 51.75 20.625 z M 63.625 20.625 L 63.625 50.6875 L 69.28125 50.6875 L 69.28125 31.09375 L 81.40625 50.6875 L 87.5 50.6875 L 87.5 20.625 L 81.84375 20.625 L 81.84375 40.6875 L 69.53125 20.625 L 63.625 20.625 z "
         style="font-size:40px;font-style:normal;font-weight:normal;fill:#00ff00;fill-opacity:1;stroke:none;stroke-width:1px;stroke-linecap:butt;stroke-linejoin:miter;stroke-opacity:1;font-family:Bitstream Vera Sans;filter:url(#filter3597)"
         id="path3531"
         d="M 9.40625,17.34375 C 8.4045256,17.343629 7.4578173,17.801895 6.8365122,18.587664 C 6.215207,19.373432 5.9876194,20.400305 6.21875,21.375 L 13.375,51.4375 C 13.720689,52.919131 15.041076,53.967674 16.5625,53.96875 L 23.15625,53.96875 C 24.638708,53.964118 25.933239,52.964381 26.3125,51.53125 L 29.125,40.90625 L 31.96875,51.53125 C 32.348011,52.964381 33.642542,53.964118 35.125,53.96875 L 41.5625,53.96875 C 43.074706,53.971121 44.391979,52.937966 44.75,51.46875 L 48.46875,36.125 L 48.46875,50.6875 C 48.467217,51.558211 48.812427,52.393701 49.428113,53.009387 C 50.043799,53.625073 50.879289,53.970283 51.75,53.96875 L 57.8125,53.96875 C 59.038225,53.965547 60.159591,53.278258 60.71875,52.1875 C 61.277909,53.278258 62.399275,53.965547 63.625,53.96875 L 69.28125,53.96875 C 70.151961,53.970283 70.987451,53.625073 71.603137,53.009387 C 72.218823,52.393701 72.564033,51.558211 72.5625,50.6875 L 72.5625,42.625 L 78.625,52.40625 C 79.218679,53.373854 80.271041,53.965068 81.40625,53.96875 L 87.5,53.96875 C 88.370711,53.970283 89.206201,53.625073 89.821887,53.009387 C 90.437573,52.393701 90.782783,51.558211 90.78125,50.6875 L 90.78125,20.625 C 90.782783,19.754289 90.437573,18.918799 89.821887,18.303113 C 89.206201,17.687427 88.370711,17.342217 87.5,17.34375 L 81.84375,17.34375 C 80.973039,17.342217 80.137549,17.687427 79.521863,18.303113 C 78.906177,18.918799 78.560967,19.754289 78.5625,20.625 L 78.5625,29.09375 L 72.3125,18.90625 C 71.718821,17.938646 70.666459,17.347432 69.53125,17.34375 L 63.625,17.34375 C 62.399275,17.346953 61.277909,18.034242 60.71875,19.125 C 60.159591,18.034242 59.038225,17.346953 57.8125,17.34375 L 51.75,17.34375 C 51.250902,17.347315 50.759219,17.464892 50.3125,17.6875 C 49.856328,17.46021 49.353409,17.342505 48.84375,17.34375 L 42.75,17.34375 C 41.219256,17.348166 39.895698,18.412204 39.5625,19.90625 L 37.9375,27.34375 L 36.03125,19.8125 C 35.661054,18.355698 34.346841,17.337827 32.84375,17.34375 L 25.625,17.34375 C 24.142542,17.348382 22.848011,18.348119 22.46875,19.78125 L 20.4375,27.40625 L 18.8125,19.9375 C 18.491955,18.431039 17.165168,17.351398 15.625,17.34375 L 9.40625,17.34375 z"
         transform="translate(-0.4423828,12.344391)" />
      <flowRoot
         xml:space="preserve"
         id="flowRoot3533"
         style="font-size:40px;font-style:normal;font-weight:normal;fill:#ffffff;fill-opacity:1;stroke:none;stroke-width:1px;stroke-linecap:butt;stroke-linejoin:miter;stroke-opacity:1;font-family:Bitstream Vera Sans"
         transform="translate(-0.4423828,12.344391)"><flowRegion
           id="flowRegion3535"><rect
             id="rect3537"
             width="95.827332"
             height="46.449909"
             x="2.1468444"
             y="15.590916"
             style="font-size:40px;font-weight:normal;fill:#ffffff" /></flowRegion><flowPara
           id="flowPara3539"
           style="font-size:42px;font-style:normal;font-variant:normal;font-weight:bold;font-stretch:normal;text-align:center;line-height:125%;writing-mode:lr-tb;text-anchor:middle;fill:#ffffff;font-family:Arial;-inkscape-font-specification:Arial Bold">WIN</flowPara></flowRoot>    </g>
    <g
       id="g3541"
       transform="translate(0,376.99999)"
       style="opacity:0.4">
      <path
         transform="translate(-0.4423828,12.344391)"
         d="M 9.40625,17.34375 C 8.4045256,17.343629 7.4578173,17.801895 6.8365122,18.587664 C 6.215207,19.373432 5.9876194,20.400305 6.21875,21.375 L 13.375,51.4375 C 13.720689,52.919131 15.041076,53.967674 16.5625,53.96875 L 23.15625,53.96875 C 24.638708,53.964118 25.933239,52.964381 26.3125,51.53125 L 29.125,40.90625 L 31.96875,51.53125 C 32.348011,52.964381 33.642542,53.964118 35.125,53.96875 L 41.5625,53.96875 C 43.074706,53.971121 44.391979,52.937966 44.75,51.46875 L 48.46875,36.125 L 48.46875,50.6875 C 48.467217,51.558211 48.812427,52.393701 49.428113,53.009387 C 50.043799,53.625073 50.879289,53.970283 51.75,53.96875 L 57.8125,53.96875 C 59.038225,53.965547 60.159591,53.278258 60.71875,52.1875 C 61.277909,53.278258 62.399275,53.965547 63.625,53.96875 L 69.28125,53.96875 C 70.151961,53.970283 70.987451,53.625073 71.603137,53.009387 C 72.218823,52.393701 72.564033,51.558211 72.5625,50.6875 L 72.5625,42.625 L 78.625,52.40625 C 79.218679,53.373854 80.271041,53.965068 81.40625,53.96875 L 87.5,53.96875 C 88.370711,53.970283 89.206201,53.625073 89.821887,53.009387 C 90.437573,52.393701 90.782783,51.558211 90.78125,50.6875 L 90.78125,20.625 C 90.782783,19.754289 90.437573,18.918799 89.821887,18.303113 C 89.206201,17.687427 88.370711,17.342217 87.5,17.34375 L 81.84375,17.34375 C 80.973039,17.342217 80.137549,17.687427 79.521863,18.303113 C 78.906177,18.918799 78.560967,19.754289 78.5625,20.625 L 78.5625,29.09375 L 72.3125,18.90625 C 71.718821,17.938646 70.666459,17.347432 69.53125,17.34375 L 63.625,17.34375 C 62.399275,17.346953 61.277909,18.034242 60.71875,19.125 C 60.159591,18.034242 59.038225,17.346953 57.8125,17.34375 L 51.75,17.34375 C 51.250902,17.347315 50.759219,17.464892 50.3125,17.6875 C 49.856328,17.46021 49.353409,17.342505 48.84375,17.34375 L 42.75,17.34375 C 41.219256,17.348166 39.895698,18.412204 39.5625,19.90625 L 37.9375,27.34375 L 36.03125,19.8125 C 35.661054,18.355698 34.346841,17.337827 32.84375,17.34375 L 25.625,17.34375 C 24.142542,17.348382 22.848011,18.348119 22.46875,19.78125 L 20.4375,27.40625 L 18.8125,19.9375 C 18.491955,18.431039 17.165168,17.351398 15.625,17.34375 L 9.40625,17.34375 z"
         id="path3543"
         style="font-size:40px;font-style:normal;font-weight:normal;fill:#00ff00;fill-opacity:1;stroke:none;stroke-width:1px;stroke-linecap:butt;stroke-linejoin:miter;stroke-opacity:1;font-family:Bitstream Vera Sans"
         inkscape:original="M 9.40625 20.625 L 16.5625 50.6875 L 23.15625 50.6875 L 29.125 28.21875 L 35.125 50.6875 L 41.5625 50.6875 L 48.84375 20.625 L 42.75 20.625 L 38.125 41.625 L 32.84375 20.625 L 25.625 20.625 L 20.15625 41.28125 L 15.625 20.625 L 9.40625 20.625 z M 51.75 20.625 L 51.75 50.6875 L 57.8125 50.6875 L 57.8125 20.625 L 51.75 20.625 z M 63.625 20.625 L 63.625 50.6875 L 69.28125 50.6875 L 69.28125 31.09375 L 81.40625 50.6875 L 87.5 50.6875 L 87.5 20.625 L 81.84375 20.625 L 81.84375 40.6875 L 69.53125 20.625 L 63.625 20.625 z "
         inkscape:radius="3.2751603"
         sodipodi:type="inkscape:offset" />
      <flowRoot
         transform="translate(-0.4423828,12.344391)"
         style="font-size:40px;font-style:normal;font-weight:normal;fill:#ffffff;fill-opacity:1;stroke:none;stroke-width:1px;stroke-linecap:butt;stroke-linejoin:miter;stroke-opacity:1;font-family:Bitstream Vera Sans"
         id="flowRoot3545"
         xml:space="preserve"><flowRegion
           id="flowRegion3547"><rect
             style="font-size:40px;font-weight:normal;fill:#ffffff"
             y="15.590916"
             x="2.1468444"
             height="46.449909"
             width="95.827332"
             id="rect3549" /></flowRegion><flowPara
           style="font-size:42px;font-style:normal;font-variant:normal;font-weight:bold;font-stretch:normal;text-align:center;line-height:125%;writing-mode:lr-tb;text-anchor:middle;fill:#ffffff;font-family:Arial;-inkscape-font-specification:Arial Bold"
           id="flowPara3551">WIN</flowPara></flowRoot>    </g>
    <g
       transform="translate(0,426.99999)"
       id="g3553"
       style="opacity:0.2">
      <path
         sodipodi:type="inkscape:offset"
         inkscape:radius="3.2751603"
         inkscape:original="M 9.40625 20.625 L 16.5625 50.6875 L 23.15625 50.6875 L 29.125 28.21875 L 35.125 50.6875 L 41.5625 50.6875 L 48.84375 20.625 L 42.75 20.625 L 38.125 41.625 L 32.84375 20.625 L 25.625 20.625 L 20.15625 41.28125 L 15.625 20.625 L 9.40625 20.625 z M 51.75 20.625 L 51.75 50.6875 L 57.8125 50.6875 L 57.8125 20.625 L 51.75 20.625 z M 63.625 20.625 L 63.625 50.6875 L 69.28125 50.6875 L 69.28125 31.09375 L 81.40625 50.6875 L 87.5 50.6875 L 87.5 20.625 L 81.84375 20.625 L 81.84375 40.6875 L 69.53125 20.625 L 63.625 20.625 z "
         style="font-size:40px;font-style:normal;font-weight:normal;fill:#00ff00;fill-opacity:1;stroke:none;stroke-width:1px;stroke-linecap:butt;stroke-linejoin:miter;stroke-opacity:1;font-family:Bitstream Vera Sans"
         id="path3555"
         d="M 9.40625,17.34375 C 8.4045256,17.343629 7.4578173,17.801895 6.8365122,18.587664 C 6.215207,19.373432 5.9876194,20.400305 6.21875,21.375 L 13.375,51.4375 C 13.720689,52.919131 15.041076,53.967674 16.5625,53.96875 L 23.15625,53.96875 C 24.638708,53.964118 25.933239,52.964381 26.3125,51.53125 L 29.125,40.90625 L 31.96875,51.53125 C 32.348011,52.964381 33.642542,53.964118 35.125,53.96875 L 41.5625,53.96875 C 43.074706,53.971121 44.391979,52.937966 44.75,51.46875 L 48.46875,36.125 L 48.46875,50.6875 C 48.467217,51.558211 48.812427,52.393701 49.428113,53.009387 C 50.043799,53.625073 50.879289,53.970283 51.75,53.96875 L 57.8125,53.96875 C 59.038225,53.965547 60.159591,53.278258 60.71875,52.1875 C 61.277909,53.278258 62.399275,53.965547 63.625,53.96875 L 69.28125,53.96875 C 70.151961,53.970283 70.987451,53.625073 71.603137,53.009387 C 72.218823,52.393701 72.564033,51.558211 72.5625,50.6875 L 72.5625,42.625 L 78.625,52.40625 C 79.218679,53.373854 80.271041,53.965068 81.40625,53.96875 L 87.5,53.96875 C 88.370711,53.970283 89.206201,53.625073 89.821887,53.009387 C 90.437573,52.393701 90.782783,51.558211 90.78125,50.6875 L 90.78125,20.625 C 90.782783,19.754289 90.437573,18.918799 89.821887,18.303113 C 89.206201,17.687427 88.370711,17.342217 87.5,17.34375 L 81.84375,17.34375 C 80.973039,17.342217 80.137549,17.687427 79.521863,18.303113 C 78.906177,18.918799 78.560967,19.754289 78.5625,20.625 L 78.5625,29.09375 L 72.3125,18.90625 C 71.718821,17.938646 70.666459,17.347432 69.53125,17.34375 L 63.625,17.34375 C 62.399275,17.346953 61.277909,18.034242 60.71875,19.125 C 60.159591,18.034242 59.038225,17.346953 57.8125,17.34375 L 51.75,17.34375 C 51.250902,17.347315 50.759219,17.464892 50.3125,17.6875 C 49.856328,17.46021 49.353409,17.342505 48.84375,17.34375 L 42.75,17.34375 C 41.219256,17.348166 39.895698,18.412204 39.5625,19.90625 L 37.9375,27.34375 L 36.03125,19.8125 C 35.661054,18.355698 34.346841,17.337827 32.84375,17.34375 L 25.625,17.34375 C 24.142542,17.348382 22.848011,18.348119 22.46875,19.78125 L 20.4375,27.40625 L 18.8125,19.9375 C 18.491955,18.431039 17.165168,17.351398 15.625,17.34375 L 9.40625,17.34375 z"
         transform="translate(-0.4423828,12.344391)" />
      <flowRoot
         xml:space="preserve"
         id="flowRoot3557"
         style="font-size:40px;font-style:normal;font-weight:normal;fill:#ffffff;fill-opacity:1;stroke:none;stroke-width:1px;stroke-linecap:butt;stroke-linejoin:miter;stroke-opacity:1;font-family:Bitstream Vera Sans"
         transform="translate(-0.4423828,12.344391)"><flowRegion
           id="flowRegion3559"><rect
             id="rect3561"
             width="95.827332"
             height="46.449909"
             x="2.1468444"
             y="15.590916"
             style="font-size:40px;font-weight:normal;fill:#ffffff" /></flowRegion><flowPara
           id="flowPara3563"
           style="font-size:42px;font-style:normal;font-variant:normal;font-weight:bold;font-stretch:normal;text-align:center;line-height:125%;writing-mode:lr-tb;text-anchor:middle;fill:#ffffff;font-family:Arial;-inkscape-font-specification:Arial Bold">WIN</flowPara></flowRoot>    </g>
  </g>
</svg>
